<svg width="24" height="24" viewBox="0 0 24 24" fill="none" xmlns="http://www.w3.org/2000/svg">
<path d="M20.8274 3.00218C18.9246 3.12714 15.1426 3.58196 12.8078 5.2357C12.6467 5.3498 12.5554 5.55271 12.5554 5.76485V20.3846C12.5554 20.8486 12.9939 21.1419 13.3637 20.9266C15.7659 19.5275 19.2399 19.1459 20.9576 19.0414C21.5441 19.0056 22 18.4616 22 17.8095V4.23566C22.0003 3.5241 21.467 2.9604 20.8274 3.00218ZM11.1922 5.2357C8.85776 3.58196 5.07575 3.12754 3.17294 3.00218C2.53334 2.9604 2 3.5241 2 4.23566V17.8099C2 18.4624 2.45591 19.0064 3.04238 19.0418C4.76081 19.1463 8.23657 19.5284 10.6387 20.9282C11.0074 21.1431 11.4446 20.8502 11.4446 20.3874V5.75761C11.4446 5.54507 11.3536 5.35021 11.1922 5.2357Z" fill="#2A2E2E"/>
</svg>
