<svg width="30" height="30" viewBox="0 0 30 30" fill="none" xmlns="http://www.w3.org/2000/svg">
<path d="M6.5625 3.75C5.81658 3.75 5.10121 4.04632 4.57376 4.57376C4.04632 5.10121 3.75 5.81658 3.75 6.5625V23.4375C3.75 24.1834 4.04632 24.8988 4.57376 25.4262C5.10121 25.9537 5.81658 26.25 6.5625 26.25H23.4375C24.1834 26.25 24.8988 25.9537 25.4262 25.4262C25.9537 24.8988 26.25 24.1834 26.25 23.4375V6.5625C26.25 5.81658 25.9537 5.10121 25.4262 4.57376C24.8988 4.04632 24.1834 3.75 23.4375 3.75H6.5625ZM10.9375 10.3125C10.9375 10.644 10.8058 10.962 10.5714 11.1964C10.337 11.4308 10.019 11.5625 9.6875 11.5625C9.35598 11.5625 9.03804 11.4308 8.80362 11.1964C8.5692 10.962 8.4375 10.644 8.4375 10.3125C8.4375 9.98098 8.5692 9.66304 8.80362 9.42862C9.03804 9.1942 9.35598 9.0625 9.6875 9.0625C10.019 9.0625 10.337 9.1942 10.5714 9.42862C10.8058 9.66304 10.9375 9.98098 10.9375 10.3125ZM13.125 10.3125C13.125 10.0639 13.2238 9.8254 13.3996 9.64959C13.5754 9.47377 13.8139 9.375 14.0625 9.375H20.9375C21.1861 9.375 21.4246 9.47377 21.6004 9.64959C21.7762 9.8254 21.875 10.0639 21.875 10.3125C21.875 10.5611 21.7762 10.7996 21.6004 10.9754C21.4246 11.1512 21.1861 11.25 20.9375 11.25H14.0625C13.8139 11.25 13.5754 11.1512 13.3996 10.9754C13.2238 10.7996 13.125 10.5611 13.125 10.3125ZM13.125 15C13.125 14.7514 13.2238 14.5129 13.3996 14.3371C13.5754 14.1613 13.8139 14.0625 14.0625 14.0625H20.9375C21.1861 14.0625 21.4246 14.1613 21.6004 14.3371C21.7762 14.5129 21.875 14.7514 21.875 15C21.875 15.2486 21.7762 15.4871 21.6004 15.6629C21.4246 15.8387 21.1861 15.9375 20.9375 15.9375H14.0625C13.8139 15.9375 13.5754 15.8387 13.3996 15.6629C13.2238 15.4871 13.125 15.2486 13.125 15ZM14.0625 18.75H20.9375C21.1861 18.75 21.4246 18.8488 21.6004 19.0246C21.7762 19.2004 21.875 19.4389 21.875 19.6875C21.875 19.9361 21.7762 20.1746 21.6004 20.3504C21.4246 20.5262 21.1861 20.625 20.9375 20.625H14.0625C13.8139 20.625 13.5754 20.5262 13.3996 20.3504C13.2238 20.1746 13.125 19.9361 13.125 19.6875C13.125 19.4389 13.2238 19.2004 13.3996 19.0246C13.5754 18.8488 13.8139 18.75 14.0625 18.75ZM9.6875 16.25C9.35598 16.25 9.03804 16.1183 8.80362 15.8839C8.5692 15.6495 8.4375 15.3315 8.4375 15C8.4375 14.6685 8.5692 14.3505 8.80362 14.1161C9.03804 13.8817 9.35598 13.75 9.6875 13.75C10.019 13.75 10.337 13.8817 10.5714 14.1161C10.8058 14.3505 10.9375 14.6685 10.9375 15C10.9375 15.3315 10.8058 15.6495 10.5714 15.8839C10.337 16.1183 10.019 16.25 9.6875 16.25ZM10.9375 19.6875C10.9375 20.019 10.8058 20.337 10.5714 20.5714C10.337 20.8058 10.019 20.9375 9.6875 20.9375C9.35598 20.9375 9.03804 20.8058 8.80362 20.5714C8.5692 20.337 8.4375 20.019 8.4375 19.6875C8.4375 19.356 8.5692 19.038 8.80362 18.8036C9.03804 18.5692 9.35598 18.4375 9.6875 18.4375C10.019 18.4375 10.337 18.5692 10.5714 18.8036C10.8058 19.038 10.9375 19.356 10.9375 19.6875Z" fill="white"/>
</svg>
