<svg width="25" height="25" viewBox="0 0 25 25" fill="none" xmlns="http://www.w3.org/2000/svg">
<g clip-path="url(#clip0_348_1849)">
<path d="M19.1918 0.192383C18.603 0.192383 18.1232 0.65921 18.1232 1.23219V4.50008C18.1232 5.07306 18.603 5.53988 19.1918 5.53988C19.7806 5.53988 20.2604 5.07306 20.2604 4.50008V1.23219C20.2604 0.65921 19.7805 0.192383 19.1918 0.192383ZM24.7962 3.20565V8.70171V24.8078H0.197632V8.68046V3.20565H3.53419V4.52133C3.53419 5.73084 4.53736 6.72825 5.80218 6.72825C7.04516 6.72815 8.07006 5.73084 8.07006 4.52133V3.20565H16.9238V4.52133C16.9238 5.73084 17.9487 6.72825 19.1918 6.72825C20.4348 6.72825 21.4598 5.73094 21.4598 4.52133V3.20565H24.7962ZM23.466 8.70171H1.52787V23.4709H18.5811L23.4659 18.7813V8.70171H23.466ZM5.80208 0.192383C5.21334 0.192383 4.7335 0.65921 4.7335 1.23219V4.50008C4.7335 5.07306 5.21324 5.53988 5.80208 5.53988C6.39091 5.53988 6.87066 5.07306 6.87066 4.50008V1.23219C6.87066 0.65921 6.39091 0.192383 5.80208 0.192383ZM19.1918 0.192383C18.603 0.192383 18.1232 0.65921 18.1232 1.23219V4.50008C18.1232 5.07306 18.603 5.53988 19.1918 5.53988C19.7806 5.53988 20.2604 5.07306 20.2604 4.50008V1.23219C20.2604 0.65921 19.7805 0.192383 19.1918 0.192383ZM11.2821 21.4364L6.02935 16.325L8.1255 14.2853L11.2852 17.3599L17.1739 11.6461L19.2672 13.6888L11.2821 21.4364Z" fill="#2A2E2B"/>
</g>
<defs>
<clipPath id="clip0_348_1849">
<rect width="25" height="25" fill="white"/>
</clipPath>
</defs>
</svg>
