<svg width="14" height="14" viewBox="0 0 14 14" fill="none" xmlns="http://www.w3.org/2000/svg">
<path d="M12.1119 7.29671C12.3416 6.9932 12.4688 6.62132 12.4688 6.23441C12.4688 5.62054 12.1256 5.03949 11.5732 4.71546C11.431 4.63206 11.2691 4.58816 11.1043 4.58832H7.82578L7.90781 2.90804C7.92695 2.50199 7.7834 2.11644 7.50449 1.8225C7.36762 1.67761 7.20248 1.56234 7.0193 1.4838C6.83611 1.40525 6.63877 1.36511 6.43945 1.36585C5.72852 1.36585 5.09961 1.84437 4.91094 2.52933L3.73652 6.78128H3.73242V12.6328H10.1896C10.3154 12.6328 10.4385 12.6082 10.552 12.559C11.2027 12.2815 11.6225 11.6457 11.6225 10.9403C11.6225 10.768 11.5979 10.5985 11.5486 10.4344C11.7783 10.1309 11.9055 9.75902 11.9055 9.3721C11.9055 9.19984 11.8809 9.03031 11.8316 8.86624C12.0613 8.56273 12.1885 8.19086 12.1885 7.80394C12.1857 7.63168 12.1611 7.46078 12.1119 7.29671ZM1.53125 7.21878V12.1953C1.53125 12.4373 1.72676 12.6328 1.96875 12.6328H2.85742V6.78128H1.96875C1.72676 6.78128 1.53125 6.97679 1.53125 7.21878Z" fill="#545454"/>
</svg>
