<svg width="14" height="15" viewBox="0 0 14 15" fill="none" xmlns="http://www.w3.org/2000/svg">
<g clip-path="url(#clip0_56_573)">
<path d="M12.3549 9.10874L13.8556 9.85949C14.0481 9.95574 14.0481 10.2305 13.8556 10.3267L7.23356 13.6386C7.161 13.6748 7.08103 13.6937 6.99994 13.6937C6.91885 13.6937 6.83887 13.6748 6.76631 13.6386L0.144312 10.3267C0.101053 10.3049 0.0646976 10.2715 0.0392962 10.2303C0.0138948 10.189 0.000444768 10.1416 0.000444768 10.0931C0.000444768 10.0447 0.0138948 9.99718 0.0392962 9.95593C0.0646976 9.91468 0.101053 9.88129 0.144312 9.85949L1.64581 9.10874L6.29819 11.4354C6.74006 11.6559 7.26069 11.6559 7.70169 11.4354L12.3541 9.10786L12.3549 9.10874ZM6.76631 0.271238C6.83887 0.235033 6.91885 0.216187 6.99994 0.216187C7.08103 0.216187 7.161 0.235033 7.23356 0.271238L13.8556 3.58224C13.8988 3.60418 13.9351 3.63767 13.9604 3.67898C13.9858 3.7203 13.9992 3.76782 13.9992 3.8163C13.9992 3.86478 13.9858 3.91231 13.9604 3.95362C13.9351 3.99493 13.8988 4.02842 13.8556 4.05036L7.23356 7.36049C7.161 7.39669 7.08103 7.41554 6.99994 7.41554C6.91885 7.41554 6.83887 7.39669 6.76631 7.36049L0.144312 4.05036C0.100824 4.02865 0.0642458 3.99524 0.0386803 3.9539C0.0131149 3.91256 -0.000427246 3.86491 -0.000427246 3.8163C-0.000427246 3.76769 0.0131149 3.72004 0.0386803 3.6787C0.0642458 3.63736 0.100824 3.60395 0.144312 3.58224L6.76631 0.271238Z" fill="#545454"/>
<path d="M12.355 5.97009L13.8556 6.72084C14.0481 6.81709 14.0481 7.09184 13.8556 7.18809L7.23361 10.4991C7.16105 10.5353 7.08107 10.5541 6.99998 10.5541C6.91889 10.5541 6.83891 10.5353 6.76636 10.4991L0.144355 7.18809C0.101096 7.16629 0.0647411 7.1329 0.0393397 7.09165C0.0139383 7.0504 0.000488281 7.00291 0.000488281 6.95447C0.000488281 6.90602 0.0139383 6.85853 0.0393397 6.81728C0.0647411 6.77603 0.101096 6.74265 0.144355 6.72084L1.64586 5.97009L6.29823 8.29672C6.74011 8.51722 7.26073 8.51722 7.70173 8.29672L12.3541 5.97009H12.355Z" fill="#545454"/>
</g>
<defs>
<clipPath id="clip0_56_573">
<rect width="14" height="14" fill="white" transform="translate(0 0.216064)"/>
</clipPath>
</defs>
</svg>
