<svg width="14" height="14" viewBox="0 0 14 14" fill="none" xmlns="http://www.w3.org/2000/svg">
<path d="M11.0833 1.16663H3.5C2.7965 1.16663 1.75 1.63271 1.75 2.91663V11.0833C1.75 12.3672 2.7965 12.8333 3.5 12.8333H12.25V11.6666H3.507C3.2375 11.6596 2.91667 11.5535 2.91667 11.0833C2.91667 11.0244 2.92192 10.9719 2.93067 10.924C2.996 10.588 3.27133 10.5058 3.507 10.5H12.25V2.33329C12.25 2.02387 12.1271 1.72713 11.9083 1.50833C11.6895 1.28954 11.3928 1.16663 11.0833 1.16663ZM11.0833 6.41663L9.91667 5.83329L8.75 6.41663V2.33329H11.0833V6.41663Z" fill="#545454"/>
</svg>
