<svg width="150" height="48" viewBox="0 0 150 48" fill="none" xmlns="http://www.w3.org/2000/svg">
<g filter="url(#filter0_d_63_439)">
<rect x="4" width="142" height="40" rx="3" fill="#2A2E2E"/>
<path d="M35.232 26V14.72H40.128C41.3653 14.72 42.32 15.0293 42.992 15.648C43.664 16.2667 44 17.1307 44 18.24C44 19.3493 43.664 20.2187 42.992 20.848C42.32 21.4667 41.3653 21.776 40.128 21.776H37.28V26H35.232ZM37.28 20.16H39.808C41.28 20.16 42.016 19.52 42.016 18.24C42.016 16.9707 41.28 16.336 39.808 16.336H37.28V20.16ZM45.3213 26V18.176H47.2733V19.552C47.6573 18.624 48.4786 18.112 49.7373 18.016L50.3453 17.968L50.4733 19.664L49.3213 19.776C48.0093 19.904 47.3533 20.576 47.3533 21.792V26H45.3213ZM55.3179 26.16C54.4325 26.16 53.6699 25.9947 53.0299 25.664C52.3899 25.3333 51.8939 24.864 51.5419 24.256C51.2005 23.648 51.0299 22.928 51.0299 22.096C51.0299 21.2853 51.1952 20.576 51.5259 19.968C51.8672 19.36 52.3312 18.8853 52.9179 18.544C53.5152 18.192 54.1925 18.016 54.9499 18.016C56.0592 18.016 56.9339 18.368 57.5739 19.072C58.2245 19.776 58.5499 20.736 58.5499 21.952V22.544H52.9499C53.0992 23.9413 53.8992 24.64 55.3499 24.64C55.7872 24.64 56.2245 24.576 56.6619 24.448C57.0992 24.3093 57.4992 24.096 57.8619 23.808L58.4219 25.152C58.0485 25.4613 57.5792 25.7067 57.0139 25.888C56.4485 26.0693 55.8832 26.16 55.3179 26.16ZM55.0299 19.376C54.4432 19.376 53.9685 19.5573 53.6059 19.92C53.2432 20.2827 53.0245 20.7733 52.9499 21.392H56.8859C56.8432 20.7413 56.6619 20.2453 56.3419 19.904C56.0325 19.552 55.5952 19.376 55.0299 19.376ZM62.3128 26L58.9207 18.176H61.0488L63.2248 23.648L65.4808 18.176H67.4808L64.0408 26H62.3128ZM78.1988 26.16C77.0254 26.16 76.0174 25.9253 75.1748 25.456C74.3428 24.976 73.7028 24.304 73.2548 23.44C72.8068 22.5653 72.5828 21.536 72.5828 20.352C72.5828 19.168 72.8068 18.144 73.2548 17.28C73.7028 16.416 74.3428 15.7493 75.1748 15.28C76.0174 14.8 77.0254 14.56 78.1988 14.56C78.9561 14.56 79.6708 14.6773 80.3428 14.912C81.0254 15.1467 81.5854 15.4827 82.0228 15.92L81.3508 17.552C80.8708 17.1467 80.3801 16.8533 79.8788 16.672C79.3774 16.48 78.8388 16.384 78.2628 16.384C77.1214 16.384 76.2521 16.7307 75.6548 17.424C75.0574 18.1067 74.7588 19.0827 74.7588 20.352C74.7588 21.6213 75.0574 22.6027 75.6548 23.296C76.2521 23.9893 77.1214 24.336 78.2628 24.336C78.8388 24.336 79.3774 24.2453 79.8788 24.064C80.3801 23.872 80.8708 23.5733 81.3508 23.168L82.0228 24.8C81.5854 25.2267 81.0254 25.5627 80.3428 25.808C79.6708 26.0427 78.9561 26.16 78.1988 26.16ZM83.6181 26V14.72H85.6181V19.312C85.8848 18.8853 86.2421 18.5653 86.6901 18.352C87.1381 18.128 87.6341 18.016 88.1781 18.016C90.0235 18.016 90.9461 19.088 90.9461 21.232V26H88.9461V21.328C88.9461 20.72 88.8288 20.2773 88.5941 20C88.3701 19.7227 88.0181 19.584 87.5381 19.584C86.9515 19.584 86.4821 19.7707 86.1301 20.144C85.7888 20.5067 85.6181 20.992 85.6181 21.6V26H83.6181ZM95.5535 26.16C94.9882 26.16 94.4815 26.0533 94.0335 25.84C93.5962 25.616 93.2495 25.3173 92.9935 24.944C92.7482 24.5707 92.6255 24.1493 92.6255 23.68C92.6255 23.104 92.7748 22.6507 93.0735 22.32C93.3722 21.9787 93.8575 21.7333 94.5295 21.584C95.2015 21.4347 96.1028 21.36 97.2335 21.36H97.7935V21.024C97.7935 20.4907 97.6762 20.1067 97.4415 19.872C97.2068 19.6373 96.8122 19.52 96.2575 19.52C95.8202 19.52 95.3722 19.5893 94.9135 19.728C94.4548 19.856 93.9908 20.0587 93.5215 20.336L92.9455 18.976C93.2228 18.784 93.5482 18.6187 93.9215 18.48C94.3055 18.3307 94.7055 18.2187 95.1215 18.144C95.5482 18.0587 95.9482 18.016 96.3215 18.016C97.4628 18.016 98.3108 18.2827 98.8655 18.816C99.4202 19.3387 99.6975 20.1547 99.6975 21.264V26H97.8255V24.752C97.6442 25.1893 97.3562 25.536 96.9615 25.792C96.5668 26.0373 96.0975 26.16 95.5535 26.16ZM95.9695 24.784C96.4922 24.784 96.9242 24.6027 97.2655 24.24C97.6175 23.8773 97.7935 23.4187 97.7935 22.864V22.512H97.2495C96.2468 22.512 95.5482 22.592 95.1535 22.752C94.7695 22.9013 94.5775 23.1787 94.5775 23.584C94.5775 23.936 94.7002 24.224 94.9455 24.448C95.1908 24.672 95.5322 24.784 95.9695 24.784ZM101.728 28.88V18.176H103.68V19.424C103.904 18.9973 104.24 18.656 104.688 18.4C105.146 18.144 105.664 18.016 106.24 18.016C106.922 18.016 107.52 18.1813 108.032 18.512C108.554 18.8427 108.96 19.312 109.248 19.92C109.536 20.5173 109.68 21.2373 109.68 22.08C109.68 22.912 109.536 23.6373 109.248 24.256C108.96 24.864 108.56 25.3333 108.048 25.664C107.536 25.9947 106.933 26.16 106.24 26.16C105.685 26.16 105.184 26.0427 104.736 25.808C104.298 25.5627 103.962 25.2373 103.728 24.832V28.88H101.728ZM105.68 24.64C106.277 24.64 106.757 24.4267 107.12 24C107.482 23.5627 107.664 22.9227 107.664 22.08C107.664 21.2267 107.482 20.592 107.12 20.176C106.757 19.7493 106.277 19.536 105.68 19.536C105.082 19.536 104.602 19.7493 104.24 20.176C103.877 20.592 103.696 21.2267 103.696 22.08C103.696 22.9227 103.877 23.5627 104.24 24C104.602 24.4267 105.082 24.64 105.68 24.64ZM114.827 26.16C112.758 26.16 111.723 25.136 111.723 23.088V19.68H110.219V18.176H111.723V15.84H113.723V18.176H116.091V19.68H113.723V22.976C113.723 23.488 113.835 23.872 114.059 24.128C114.283 24.384 114.646 24.512 115.147 24.512C115.296 24.512 115.451 24.496 115.611 24.464C115.771 24.4213 115.936 24.3787 116.107 24.336L116.411 25.808C116.219 25.9147 115.974 26 115.675 26.064C115.387 26.128 115.104 26.16 114.827 26.16ZM121.162 26.16C120.276 26.16 119.514 25.9947 118.874 25.664C118.234 25.3333 117.738 24.864 117.386 24.256C117.044 23.648 116.874 22.928 116.874 22.096C116.874 21.2853 117.039 20.576 117.37 19.968C117.711 19.36 118.175 18.8853 118.762 18.544C119.359 18.192 120.036 18.016 120.794 18.016C121.903 18.016 122.778 18.368 123.418 19.072C124.068 19.776 124.394 20.736 124.394 21.952V22.544H118.794C118.943 23.9413 119.743 24.64 121.194 24.64C121.631 24.64 122.068 24.576 122.506 24.448C122.943 24.3093 123.343 24.096 123.706 23.808L124.266 25.152C123.892 25.4613 123.423 25.7067 122.858 25.888C122.292 26.0693 121.727 26.16 121.162 26.16ZM120.874 19.376C120.287 19.376 119.812 19.5573 119.45 19.92C119.087 20.2827 118.868 20.7733 118.794 21.392H122.73C122.687 20.7413 122.506 20.2453 122.186 19.904C121.876 19.552 121.439 19.376 120.874 19.376ZM125.978 26V18.176H127.93V19.552C128.314 18.624 129.135 18.112 130.394 18.016L131.002 17.968L131.13 19.664L129.978 19.776C128.666 19.904 128.01 20.576 128.01 21.792V26H125.978Z" fill="white"/>
<path d="M10 20L23.5 33.5L25.6 31.25L14.5 20L25.6 8.75L23.5 6.5L10 20Z" fill="white"/>
<path d="M20.9037 12.8662L13.4824 20.3662L20.9037 27.8662L22.7424 26.008L17.1599 20.3662L22.7424 14.7245L20.9037 12.8662Z" fill="white"/>
</g>
<defs>
<filter id="filter0_d_63_439" x="0" y="0" width="150" height="48" filterUnits="userSpaceOnUse" color-interpolation-filters="sRGB">
<feFlood flood-opacity="0" result="BackgroundImageFix"/>
<feColorMatrix in="SourceAlpha" type="matrix" values="0 0 0 0 0 0 0 0 0 0 0 0 0 0 0 0 0 0 127 0" result="hardAlpha"/>
<feOffset dy="4"/>
<feGaussianBlur stdDeviation="2"/>
<feComposite in2="hardAlpha" operator="out"/>
<feColorMatrix type="matrix" values="0 0 0 0 0 0 0 0 0 0 0 0 0 0 0 0 0 0 0.25 0"/>
<feBlend mode="normal" in2="BackgroundImageFix" result="effect1_dropShadow_63_439"/>
<feBlend mode="normal" in="SourceGraphic" in2="effect1_dropShadow_63_439" result="shape"/>
</filter>
</defs>
</svg>
