<svg width="25" height="25" viewBox="0 0 25 25" fill="none" xmlns="http://www.w3.org/2000/svg">
<g clip-path="url(#clip0_348_1845)">
<path d="M12.1688 7.82387L4.16665 14.4146V21.5279C4.16665 21.712 4.23981 21.8887 4.37004 22.0189C4.50028 22.1491 4.67691 22.2223 4.86109 22.2223L9.72481 22.2097C9.90838 22.2088 10.0841 22.1352 10.2136 22.0051C10.3431 21.875 10.4158 21.6989 10.4158 21.5153V17.3612C10.4158 17.177 10.4889 17.0004 10.6192 16.8701C10.7494 16.7399 10.926 16.6667 11.1102 16.6667H13.888C14.0722 16.6667 14.2488 16.7399 14.379 16.8701C14.5093 17.0004 14.5824 17.177 14.5824 17.3612V21.5122C14.5822 21.6036 14.5999 21.6941 14.6347 21.7787C14.6695 21.8632 14.7206 21.94 14.7851 22.0047C14.8496 22.0694 14.9262 22.1207 15.0106 22.1558C15.095 22.1908 15.1855 22.2089 15.2769 22.2089L20.1389 22.2223C20.323 22.2223 20.4997 22.1491 20.6299 22.0189C20.7601 21.8887 20.8333 21.712 20.8333 21.5279V14.4098L12.8329 7.82387C12.7388 7.74805 12.6217 7.70671 12.5008 7.70671C12.38 7.70671 12.2629 7.74805 12.1688 7.82387ZM24.809 12.3035L21.1805 9.31258V3.30086C21.1805 3.16273 21.1257 3.03025 21.028 2.93258C20.9303 2.8349 20.7978 2.78003 20.6597 2.78003H18.2291C18.091 2.78003 17.9585 2.8349 17.8609 2.93258C17.7632 3.03025 17.7083 3.16273 17.7083 3.30086V6.45234L13.8225 3.25529C13.4496 2.94842 12.9816 2.78064 12.4987 2.78064C12.0157 2.78064 11.5478 2.94842 11.1749 3.25529L0.188347 12.3035C0.135607 12.3471 0.0919735 12.4006 0.0599388 12.4611C0.0279041 12.5215 0.00809631 12.5877 0.00164726 12.6558C-0.00480179 12.724 0.00223428 12.7927 0.0223534 12.8581C0.0424726 12.9235 0.0752806 12.9843 0.118903 13.037L1.22567 14.3825C1.26918 14.4354 1.32269 14.4792 1.38314 14.5113C1.44359 14.5435 1.5098 14.5635 1.57797 14.5701C1.64614 14.5766 1.71494 14.5697 1.78043 14.5496C1.84592 14.5296 1.90681 14.4968 1.95961 14.4532L12.1688 6.04435C12.2629 5.96854 12.38 5.9272 12.5008 5.9272C12.6217 5.9272 12.7388 5.96854 12.8329 6.04435L23.0425 14.4532C23.0952 14.4968 23.156 14.5296 23.2214 14.5498C23.2868 14.5699 23.3555 14.5769 23.4237 14.5705C23.4918 14.564 23.558 14.5442 23.6184 14.5122C23.6789 14.4801 23.7324 14.4365 23.776 14.3838L24.8828 13.0383C24.9264 12.9853 24.959 12.9242 24.9789 12.8585C24.9988 12.7928 25.0055 12.7238 24.9987 12.6555C24.9918 12.5872 24.9715 12.521 24.939 12.4606C24.9064 12.4002 24.8623 12.3468 24.809 12.3035Z" fill="#2A2E2E"/>
</g>
<defs>
<clipPath id="clip0_348_1845">
<rect width="25" height="25" fill="white"/>
</clipPath>
</defs>
</svg>
