<svg width="29" height="29" viewBox="0 0 29 29" fill="none" xmlns="http://www.w3.org/2000/svg">
<path d="M8.45833 9.06242C8.45833 7.86749 8.81267 6.6994 9.47654 5.70585C10.1404 4.7123 11.084 3.93793 12.188 3.48065C13.2919 3.02337 14.5067 2.90372 15.6787 3.13684C16.8506 3.36996 17.9272 3.94538 18.7721 4.79032C19.617 5.63526 20.1925 6.71178 20.4256 7.88375C20.6587 9.05572 20.5391 10.2705 20.0818 11.3745C19.6245 12.4784 18.8501 13.422 17.8566 14.0859C16.863 14.7497 15.6949 15.1041 14.5 15.1041C12.8982 15.1022 11.3626 14.465 10.23 13.3324C9.0974 12.1998 8.46025 10.6642 8.45833 9.06242ZM19.4747 16.3982C18.7929 16.2291 18.0724 16.3231 17.4568 16.6616C16.552 17.1633 15.5345 17.4265 14.5 17.4265C13.4655 17.4265 12.448 17.1633 11.5432 16.6616C10.9275 16.3236 10.2071 16.2296 9.52529 16.3982C8.34861 16.7016 7.30713 17.3897 6.56644 18.3531C5.82576 19.3164 5.42839 20.4997 5.4375 21.7149V22.9365C5.43765 23.7018 5.64339 24.453 6.03321 25.1115C6.19525 25.3776 6.42341 25.5973 6.6955 25.7491C6.96759 25.9009 7.27434 25.9797 7.58592 25.9779H21.4141C21.7258 25.9797 22.0327 25.9008 22.3048 25.7487C22.5769 25.5967 22.805 25.3767 22.9668 25.1103C23.3569 24.4519 23.5627 23.7006 23.5625 22.9353V21.71C23.5705 20.4957 23.1727 19.3135 22.4321 18.3512C21.6915 17.3888 20.6506 16.7014 19.4747 16.3982Z" fill="#2A2E2E"/>
</svg>
