<svg width="25" height="25" viewBox="0 0 25 25" fill="none" xmlns="http://www.w3.org/2000/svg">
<path d="M1.9675 6.6075L11.3425 11.6437C11.6575 11.8125 12.065 11.8925 12.475 11.8925C12.885 11.8925 13.2925 11.8125 13.6075 11.6437L22.9825 6.6075C23.5938 6.27875 24.1713 5 23.05 5H1.90125C0.780002 5 1.3575 6.27875 1.9675 6.6075ZM23.2663 9.36125L13.6075 14.395C13.1825 14.6175 12.885 14.6438 12.475 14.6438C12.065 14.6438 11.7675 14.6175 11.3425 14.395C10.9175 14.1725 2.42625 9.72125 1.7325 9.36C1.245 9.105 1.25 9.40375 1.25 9.63375V18.75C1.25 19.275 1.9575 20 2.5 20H22.5C23.0425 20 23.75 19.275 23.75 18.75V9.635C23.75 9.405 23.755 9.10625 23.2663 9.36125Z" fill="#2A2E2E"/>
</svg>
