<svg width="14" height="14" viewBox="0 0 14 14" fill="none" xmlns="http://www.w3.org/2000/svg">
<path d="M7 2.625C3.94712 2.625 1.30025 4.8602 0 8.125C1.30025 11.3898 3.94712 13.625 7 13.625C10.0529 13.625 12.6997 11.3898 14 8.125C12.6997 4.8602 10.0529 2.625 7 2.625ZM10.4519 5.5422C11.2744 6.2022 11.9717 7.0855 12.495 8.125C11.9734 9.16439 11.2758 10.0463 10.4519 10.7078C9.42117 11.5357 8.22357 11.9756 7.00044 11.9756C5.7773 11.9756 4.5797 11.5357 3.549 10.7078C2.7255 10.0457 2.02797 9.16392 1.50587 8.125C2.06184 7.01745 2.81717 6.08976 3.71088 5.4168C3.51854 6.08147 3.45649 6.79464 3.53 7.49586C3.60351 8.19708 3.8104 8.86569 4.13314 9.44503C4.45588 10.0244 4.88496 10.4974 5.38401 10.8239C5.88306 11.1505 6.43739 11.321 7 11.321C7.56261 11.321 8.11693 11.1505 8.61599 10.8239C9.11504 10.4974 9.54412 10.0244 9.86686 9.44503C10.1896 8.86569 10.3965 8.19708 10.47 7.49586C10.5435 6.79464 10.4815 6.08147 10.2891 5.4168C10.3434 5.4575 10.3976 5.4993 10.451 5.5422H10.4519ZM7 6.475C6.99988 6.91275 6.86145 7.33252 6.61514 7.64195C6.36883 7.95139 6.03484 8.12515 5.68663 8.125C5.33841 8.12485 5.00451 7.95082 4.75837 7.64118C4.51222 7.33153 4.37401 6.91165 4.37413 6.4739C4.37424 6.03615 4.51268 5.61638 4.75899 5.30695C5.00529 4.99751 5.33929 4.82375 5.6875 4.8239C6.03571 4.82405 6.36962 4.99808 6.61576 5.30772C6.8619 5.61737 7.00012 6.03725 7 6.475Z" fill="#545454"/>
</svg>
