<svg width="20" height="20" viewBox="0 0 20 20" fill="none" xmlns="http://www.w3.org/2000/svg">
<g clip-path="url(#clip0_60_51)">
<path d="M17.65 12.7036L19.7938 13.7761C20.0688 13.9136 20.0688 14.3061 19.7938 14.4436L10.3338 19.1749C10.2301 19.2266 10.1159 19.2535 10 19.2535C9.88419 19.2535 9.76993 19.2266 9.66628 19.1749L0.206281 14.4436C0.144483 14.4125 0.0925472 14.3648 0.0562595 14.3059C0.0199717 14.2469 0.000757453 14.1791 0.000757453 14.1099C0.000757453 14.0407 0.0199717 13.9728 0.0562595 13.9139C0.0925472 13.855 0.144483 13.8073 0.206281 13.7761L2.35128 12.7036L8.99753 16.0274C9.62878 16.3424 10.3725 16.3424 11.0025 16.0274L17.6488 12.7024L17.65 12.7036ZM9.66628 0.0786449C9.76993 0.0269232 9.88419 0 10 0C10.1159 0 10.2301 0.0269232 10.3338 0.0786449L19.7938 4.80864C19.8555 4.83999 19.9074 4.88783 19.9436 4.94685C19.9798 5.00587 19.999 5.07377 19.999 5.14302C19.999 5.21227 19.9798 5.28017 19.9436 5.33919C19.9074 5.39821 19.8555 5.44605 19.7938 5.4774L10.3338 10.2061C10.2301 10.2579 10.1159 10.2848 10 10.2848C9.88419 10.2848 9.76993 10.2579 9.66628 10.2061L0.206281 5.4774C0.144156 5.44637 0.0919018 5.39865 0.0553797 5.33959C0.0188576 5.28053 -0.000488281 5.21246 -0.000488281 5.14302C-0.000488281 5.07358 0.0188576 5.00551 0.0553797 4.94645C0.0919018 4.88739 0.144156 4.83967 0.206281 4.80864L9.66628 0.0786449Z" fill="#2A2E2E"/>
<path d="M17.6502 8.21997L19.794 9.29247C20.069 9.42997 20.069 9.82247 19.794 9.95997L10.334 14.69C10.2303 14.7417 10.1161 14.7686 10.0003 14.7686C9.88441 14.7686 9.77015 14.7417 9.6665 14.69L0.206501 9.95997C0.144702 9.92882 0.0927664 9.88113 0.0564786 9.8222C0.0201908 9.76327 0.000976562 9.69543 0.000976563 9.62622C0.000976562 9.55702 0.0201908 9.48917 0.0564786 9.43024C0.0927664 9.37131 0.144702 9.32362 0.206501 9.29247L2.3515 8.21997L8.99775 11.5437C9.629 11.8587 10.3728 11.8587 11.0028 11.5437L17.649 8.21997H17.6502Z" fill="#2A2E2E"/>
</g>
<defs>
<clipPath id="clip0_60_51">
<rect width="20" height="20" fill="white"/>
</clipPath>
</defs>
</svg>
