<svg width="32" height="32" viewBox="0 0 32 32" fill="none" xmlns="http://www.w3.org/2000/svg">
<path d="M11.9999 3C11.9999 2.73478 12.1052 2.48043 12.2928 2.29289C12.4803 2.10536 12.7347 2 12.9999 2C13.2651 2 13.5195 2.10536 13.707 2.29289C13.8945 2.48043 13.9999 2.73478 13.9999 3V27.586C13.9998 27.7836 13.9412 27.9768 13.8315 28.1412C13.7217 28.3055 13.5657 28.4337 13.3832 28.5094C13.2007 28.5852 12.9998 28.6051 12.8059 28.5668C12.612 28.5285 12.4339 28.4335 12.2939 28.294L2.99789 19C2.90476 18.9071 2.83088 18.7968 2.78046 18.6753C2.73005 18.5538 2.7041 18.4235 2.7041 18.292C2.7041 18.1605 2.73005 18.0302 2.78046 17.9087C2.83088 17.7872 2.90476 17.6769 2.99789 17.584H3.00189C3.18933 17.3971 3.44321 17.2922 3.70789 17.2922C3.97256 17.2922 4.22644 17.3971 4.41389 17.584L11.9999 25.176V3ZM17.9999 4.414C18.0003 4.21654 18.0592 4.02363 18.1691 3.85959C18.279 3.69554 18.4351 3.56771 18.6175 3.49221C18.8 3.4167 19.0007 3.3969 19.1944 3.4353C19.3881 3.47371 19.566 3.56859 19.7059 3.708L29.0019 13C29.095 13.0929 29.1689 13.2032 29.2193 13.3247C29.2697 13.4462 29.2957 13.5765 29.2957 13.708C29.2957 13.8395 29.2697 13.9698 29.2193 14.0913C29.1689 14.2128 29.095 14.3231 29.0019 14.416H28.9979C28.8104 14.6029 28.5566 14.7078 28.2919 14.7078C28.0272 14.7078 27.7733 14.6029 27.5859 14.416L19.9999 6.828V29C19.9999 29.2652 19.8945 29.5196 19.707 29.7071C19.5195 29.8946 19.2651 30 18.9999 30C18.7347 30 18.4803 29.8946 18.2928 29.7071C18.1052 29.5196 17.9999 29.2652 17.9999 29V4.414Z" fill="#2A2E2E"/>
</svg>
