<svg width="150" height="48" viewBox="0 0 150 48" fill="none" xmlns="http://www.w3.org/2000/svg">
<g filter="url(#filter0_d_63_431)">
<rect x="4" width="142" height="40" rx="3" fill="#2A2E2E"/>
<path d="M16.232 26V14.72H17.768L23.832 22.592V14.72H25.736V26H24.216L18.136 18.096V26H16.232ZM31.8648 26.16C30.9794 26.16 30.2168 25.9947 29.5768 25.664C28.9368 25.3333 28.4408 24.864 28.0888 24.256C27.7474 23.648 27.5768 22.928 27.5768 22.096C27.5768 21.2853 27.7421 20.576 28.0728 19.968C28.4141 19.36 28.8781 18.8853 29.4648 18.544C30.0621 18.192 30.7394 18.016 31.4968 18.016C32.6061 18.016 33.4808 18.368 34.1208 19.072C34.7714 19.776 35.0968 20.736 35.0968 21.952V22.544H29.4968C29.6461 23.9413 30.4461 24.64 31.8968 24.64C32.3341 24.64 32.7714 24.576 33.2088 24.448C33.6461 24.3093 34.0461 24.096 34.4088 23.808L34.9688 25.152C34.5954 25.4613 34.1261 25.7067 33.5608 25.888C32.9954 26.0693 32.4301 26.16 31.8648 26.16ZM31.5768 19.376C30.9901 19.376 30.5154 19.5573 30.1528 19.92C29.7901 20.2827 29.5714 20.7733 29.4968 21.392H33.4328C33.3901 20.7413 33.2088 20.2453 32.8888 19.904C32.5794 19.552 32.1421 19.376 31.5768 19.376ZM35.5457 26L38.8258 21.952L35.7538 18.176H38.0898L39.9778 20.592L41.8658 18.176H44.2018L41.1138 21.968L44.4097 26H42.0578L39.9618 23.36L37.8818 26H35.5457ZM48.9521 26.16C46.8828 26.16 45.8481 25.136 45.8481 23.088V19.68H44.3441V18.176H45.8481V15.84H47.8481V18.176H50.2161V19.68H47.8481V22.976C47.8481 23.488 47.9601 23.872 48.1841 24.128C48.4081 24.384 48.7708 24.512 49.2721 24.512C49.4215 24.512 49.5761 24.496 49.7361 24.464C49.8961 24.4213 50.0615 24.3787 50.2321 24.336L50.5361 25.808C50.3441 25.9147 50.0988 26 49.8001 26.064C49.5121 26.128 49.2295 26.16 48.9521 26.16ZM61.2613 26.16C60.0879 26.16 59.0799 25.9253 58.2373 25.456C57.4053 24.976 56.7653 24.304 56.3173 23.44C55.8693 22.5653 55.6453 21.536 55.6453 20.352C55.6453 19.168 55.8693 18.144 56.3173 17.28C56.7653 16.416 57.4053 15.7493 58.2373 15.28C59.0799 14.8 60.0879 14.56 61.2613 14.56C62.0186 14.56 62.7333 14.6773 63.4053 14.912C64.0879 15.1467 64.6479 15.4827 65.0853 15.92L64.4133 17.552C63.9333 17.1467 63.4426 16.8533 62.9413 16.672C62.4399 16.48 61.9013 16.384 61.3253 16.384C60.1839 16.384 59.3146 16.7307 58.7173 17.424C58.1199 18.1067 57.8213 19.0827 57.8213 20.352C57.8213 21.6213 58.1199 22.6027 58.7173 23.296C59.3146 23.9893 60.1839 24.336 61.3253 24.336C61.9013 24.336 62.4399 24.2453 62.9413 24.064C63.4426 23.872 63.9333 23.5733 64.4133 23.168L65.0853 24.8C64.6479 25.2267 64.0879 25.5627 63.4053 25.808C62.7333 26.0427 62.0186 26.16 61.2613 26.16ZM66.6806 26V14.72H68.6806V19.312C68.9473 18.8853 69.3046 18.5653 69.7526 18.352C70.2006 18.128 70.6966 18.016 71.2406 18.016C73.086 18.016 74.0086 19.088 74.0086 21.232V26H72.0086V21.328C72.0086 20.72 71.8913 20.2773 71.6566 20C71.4326 19.7227 71.0806 19.584 70.6006 19.584C70.014 19.584 69.5446 19.7707 69.1926 20.144C68.8513 20.5067 68.6806 20.992 68.6806 21.6V26H66.6806ZM78.616 26.16C78.0507 26.16 77.544 26.0533 77.096 25.84C76.6587 25.616 76.312 25.3173 76.056 24.944C75.8107 24.5707 75.688 24.1493 75.688 23.68C75.688 23.104 75.8373 22.6507 76.136 22.32C76.4347 21.9787 76.92 21.7333 77.592 21.584C78.264 21.4347 79.1653 21.36 80.296 21.36H80.856V21.024C80.856 20.4907 80.7387 20.1067 80.504 19.872C80.2693 19.6373 79.8747 19.52 79.32 19.52C78.8827 19.52 78.4347 19.5893 77.976 19.728C77.5173 19.856 77.0533 20.0587 76.584 20.336L76.008 18.976C76.2853 18.784 76.6107 18.6187 76.984 18.48C77.368 18.3307 77.768 18.2187 78.184 18.144C78.6107 18.0587 79.0107 18.016 79.384 18.016C80.5253 18.016 81.3733 18.2827 81.928 18.816C82.4827 19.3387 82.76 20.1547 82.76 21.264V26H80.888V24.752C80.7067 25.1893 80.4187 25.536 80.024 25.792C79.6293 26.0373 79.16 26.16 78.616 26.16ZM79.032 24.784C79.5547 24.784 79.9867 24.6027 80.328 24.24C80.68 23.8773 80.856 23.4187 80.856 22.864V22.512H80.312C79.3093 22.512 78.6107 22.592 78.216 22.752C77.832 22.9013 77.64 23.1787 77.64 23.584C77.64 23.936 77.7627 24.224 78.008 24.448C78.2533 24.672 78.5947 24.784 79.032 24.784ZM84.79 28.88V18.176H86.742V19.424C86.966 18.9973 87.302 18.656 87.75 18.4C88.2087 18.144 88.726 18.016 89.302 18.016C89.9847 18.016 90.582 18.1813 91.094 18.512C91.6167 18.8427 92.022 19.312 92.31 19.92C92.598 20.5173 92.742 21.2373 92.742 22.08C92.742 22.912 92.598 23.6373 92.31 24.256C92.022 24.864 91.622 25.3333 91.11 25.664C90.598 25.9947 89.9953 26.16 89.302 26.16C88.7473 26.16 88.246 26.0427 87.798 25.808C87.3607 25.5627 87.0247 25.2373 86.79 24.832V28.88H84.79ZM88.742 24.64C89.3393 24.64 89.8193 24.4267 90.182 24C90.5447 23.5627 90.726 22.9227 90.726 22.08C90.726 21.2267 90.5447 20.592 90.182 20.176C89.8193 19.7493 89.3393 19.536 88.742 19.536C88.1447 19.536 87.6647 19.7493 87.302 20.176C86.9393 20.592 86.758 21.2267 86.758 22.08C86.758 22.9227 86.9393 23.5627 87.302 24C87.6647 24.4267 88.1447 24.64 88.742 24.64ZM97.8896 26.16C95.8203 26.16 94.7856 25.136 94.7856 23.088V19.68H93.2816V18.176H94.7856V15.84H96.7856V18.176H99.1536V19.68H96.7856V22.976C96.7856 23.488 96.8976 23.872 97.1216 24.128C97.3456 24.384 97.7083 24.512 98.2096 24.512C98.359 24.512 98.5136 24.496 98.6736 24.464C98.8336 24.4213 98.999 24.3787 99.1696 24.336L99.4736 25.808C99.2816 25.9147 99.0363 26 98.7376 26.064C98.4496 26.128 98.167 26.16 97.8896 26.16ZM104.224 26.16C103.339 26.16 102.576 25.9947 101.936 25.664C101.296 25.3333 100.8 24.864 100.448 24.256C100.107 23.648 99.9361 22.928 99.9361 22.096C99.9361 21.2853 100.101 20.576 100.432 19.968C100.773 19.36 101.237 18.8853 101.824 18.544C102.421 18.192 103.099 18.016 103.856 18.016C104.965 18.016 105.84 18.368 106.48 19.072C107.131 19.776 107.456 20.736 107.456 21.952V22.544H101.856C102.005 23.9413 102.805 24.64 104.256 24.64C104.693 24.64 105.131 24.576 105.568 24.448C106.005 24.3093 106.405 24.096 106.768 23.808L107.328 25.152C106.955 25.4613 106.485 25.7067 105.92 25.888C105.355 26.0693 104.789 26.16 104.224 26.16ZM103.936 19.376C103.349 19.376 102.875 19.5573 102.512 19.92C102.149 20.2827 101.931 20.7733 101.856 21.392H105.792C105.749 20.7413 105.568 20.2453 105.248 19.904C104.939 19.552 104.501 19.376 103.936 19.376ZM109.04 26V18.176H110.992V19.552C111.376 18.624 112.197 18.112 113.456 18.016L114.064 17.968L114.192 19.664L113.04 19.776C111.728 19.904 111.072 20.576 111.072 21.792V26H109.04Z" fill="white"/>
<path d="M128.525 12.5L126.763 14.2625L132.488 20L126.763 25.7375L128.525 27.5L136.025 20L128.525 12.5Z" fill="white"/>
</g>
<defs>
<filter id="filter0_d_63_431" x="0" y="0" width="150" height="48" filterUnits="userSpaceOnUse" color-interpolation-filters="sRGB">
<feFlood flood-opacity="0" result="BackgroundImageFix"/>
<feColorMatrix in="SourceAlpha" type="matrix" values="0 0 0 0 0 0 0 0 0 0 0 0 0 0 0 0 0 0 127 0" result="hardAlpha"/>
<feOffset dy="4"/>
<feGaussianBlur stdDeviation="2"/>
<feComposite in2="hardAlpha" operator="out"/>
<feColorMatrix type="matrix" values="0 0 0 0 0 0 0 0 0 0 0 0 0 0 0 0 0 0 0.25 0"/>
<feBlend mode="normal" in2="BackgroundImageFix" result="effect1_dropShadow_63_431"/>
<feBlend mode="normal" in="SourceGraphic" in2="effect1_dropShadow_63_431" result="shape"/>
</filter>
</defs>
</svg>
