<svg width="20" height="20" viewBox="0 0 20 20" fill="none" xmlns="http://www.w3.org/2000/svg">
<path d="M15.8333 1.66675H5C3.995 1.66675 2.5 2.33258 2.5 4.16675V15.8334C2.5 17.6676 3.995 18.3334 5 18.3334H17.5V16.6667H5.01C4.625 16.6567 4.16667 16.5051 4.16667 15.8334C4.16667 15.7492 4.17417 15.6742 4.18667 15.6059C4.28 15.1259 4.67333 15.0084 5.01 15.0001H17.5V3.33341C17.5 2.89139 17.3244 2.46746 17.0118 2.1549C16.6993 1.84234 16.2754 1.66675 15.8333 1.66675ZM15.8333 9.16675L14.1667 8.33341L12.5 9.16675V3.33341H15.8333V9.16675Z" fill="#2A2E2E"/>
</svg>
