<svg width="16" height="16" viewBox="0 0 16 16" fill="none" xmlns="http://www.w3.org/2000/svg">
<path d="M8.66667 2.33325C8.66667 2.06804 8.56131 1.81368 8.37377 1.62615C8.18624 1.43861 7.93188 1.33325 7.66667 1.33325C7.40145 1.33325 7.1471 1.43861 6.95956 1.62615C6.77202 1.81368 6.66667 2.06804 6.66667 2.33325V6.66659H2.33333C2.06812 6.66659 1.81376 6.77194 1.62623 6.95948C1.43869 7.14701 1.33333 7.40137 1.33333 7.66659C1.33333 7.9318 1.43869 8.18616 1.62623 8.37369C1.81376 8.56123 2.06812 8.66659 2.33333 8.66659H6.66667V12.9999C6.66667 13.2651 6.77202 13.5195 6.95956 13.707C7.1471 13.8946 7.40145 13.9999 7.66667 13.9999C7.93188 13.9999 8.18624 13.8946 8.37377 13.707C8.56131 13.5195 8.66667 13.2651 8.66667 12.9999V8.66659H13C13.2652 8.66659 13.5196 8.56123 13.7071 8.37369C13.8946 8.18616 14 7.9318 14 7.66659C14 7.40137 13.8946 7.14701 13.7071 6.95948C13.5196 6.77194 13.2652 6.66659 13 6.66659H8.66667V2.33325Z" fill="white"/>
</svg>
