<svg width="25" height="25" viewBox="0 0 25 25" fill="none" xmlns="http://www.w3.org/2000/svg">
<path d="M11.25 12.5H13.75V15H25C25 15 24.8137 9.42625 24.75 7.6825C24.6875 6.025 24.0938 5 22.25 5H18.24L16.7438 2.18C16.33 1.40125 16.1887 1.25 15.27 1.25H9.72875C8.81 1.25 8.67 1.40125 8.255 2.18C8.04875 2.56875 7.38 3.8275 6.76 5H2.74875C0.90375 5 0.3175 6.025 0.24875 7.6825C0.18125 9.34125 0 15 0 15H11.25V12.5ZM9.56125 3.645C9.84875 3.105 9.94625 3 10.5825 3H14.4163C15.0525 3 15.1512 3.105 15.4362 3.645L16.155 5H8.8425L9.56125 3.645ZM13.75 18.75H11.25V16.25H0.625C0.625 16.25 0.78 18.4963 0.87375 20.4025C0.9125 21.1938 1.14625 22.5 3.12375 22.5H21.875C23.8525 22.5 24.0812 21.1912 24.125 20.4025C24.2337 18.4425 24.375 16.25 24.375 16.25H13.75V18.75Z" fill="#2A2E2E"/>
</svg>
