<svg width="50" height="40" viewBox="0 0 50 40" fill="none" xmlns="http://www.w3.org/2000/svg">
<rect width="50" height="40" rx="3" fill="#2A2E2E"/>
<path d="M16.5625 8.75C15.8166 8.75 15.1012 9.04632 14.5738 9.57376C14.0463 10.1012 13.75 10.8166 13.75 11.5625V28.4375C13.75 29.1834 14.0463 29.8988 14.5738 30.4262C15.1012 30.9537 15.8166 31.25 16.5625 31.25H33.4375C34.1834 31.25 34.8988 30.9537 35.4262 30.4262C35.9537 29.8988 36.25 29.1834 36.25 28.4375V11.5625C36.25 10.8166 35.9537 10.1012 35.4262 9.57376C34.8988 9.04632 34.1834 8.75 33.4375 8.75H16.5625ZM20.9375 15.3125C20.9375 15.644 20.8058 15.962 20.5714 16.1964C20.337 16.4308 20.019 16.5625 19.6875 16.5625C19.356 16.5625 19.038 16.4308 18.8036 16.1964C18.5692 15.962 18.4375 15.644 18.4375 15.3125C18.4375 14.981 18.5692 14.663 18.8036 14.4286C19.038 14.1942 19.356 14.0625 19.6875 14.0625C20.019 14.0625 20.337 14.1942 20.5714 14.4286C20.8058 14.663 20.9375 14.981 20.9375 15.3125ZM23.125 15.3125C23.125 15.0639 23.2238 14.8254 23.3996 14.6496C23.5754 14.4738 23.8139 14.375 24.0625 14.375H30.9375C31.1861 14.375 31.4246 14.4738 31.6004 14.6496C31.7762 14.8254 31.875 15.0639 31.875 15.3125C31.875 15.5611 31.7762 15.7996 31.6004 15.9754C31.4246 16.1512 31.1861 16.25 30.9375 16.25H24.0625C23.8139 16.25 23.5754 16.1512 23.3996 15.9754C23.2238 15.7996 23.125 15.5611 23.125 15.3125ZM23.125 20C23.125 19.7514 23.2238 19.5129 23.3996 19.3371C23.5754 19.1613 23.8139 19.0625 24.0625 19.0625H30.9375C31.1861 19.0625 31.4246 19.1613 31.6004 19.3371C31.7762 19.5129 31.875 19.7514 31.875 20C31.875 20.2486 31.7762 20.4871 31.6004 20.6629C31.4246 20.8387 31.1861 20.9375 30.9375 20.9375H24.0625C23.8139 20.9375 23.5754 20.8387 23.3996 20.6629C23.2238 20.4871 23.125 20.2486 23.125 20ZM24.0625 23.75H30.9375C31.1861 23.75 31.4246 23.8488 31.6004 24.0246C31.7762 24.2004 31.875 24.4389 31.875 24.6875C31.875 24.9361 31.7762 25.1746 31.6004 25.3504C31.4246 25.5262 31.1861 25.625 30.9375 25.625H24.0625C23.8139 25.625 23.5754 25.5262 23.3996 25.3504C23.2238 25.1746 23.125 24.9361 23.125 24.6875C23.125 24.4389 23.2238 24.2004 23.3996 24.0246C23.5754 23.8488 23.8139 23.75 24.0625 23.75ZM19.6875 21.25C19.356 21.25 19.038 21.1183 18.8036 20.8839C18.5692 20.6495 18.4375 20.3315 18.4375 20C18.4375 19.6685 18.5692 19.3505 18.8036 19.1161C19.038 18.8817 19.356 18.75 19.6875 18.75C20.019 18.75 20.337 18.8817 20.5714 19.1161C20.8058 19.3505 20.9375 19.6685 20.9375 20C20.9375 20.3315 20.8058 20.6495 20.5714 20.8839C20.337 21.1183 20.019 21.25 19.6875 21.25ZM20.9375 24.6875C20.9375 25.019 20.8058 25.337 20.5714 25.5714C20.337 25.8058 20.019 25.9375 19.6875 25.9375C19.356 25.9375 19.038 25.8058 18.8036 25.5714C18.5692 25.337 18.4375 25.019 18.4375 24.6875C18.4375 24.356 18.5692 24.038 18.8036 23.8036C19.038 23.5692 19.356 23.4375 19.6875 23.4375C20.019 23.4375 20.337 23.5692 20.5714 23.8036C20.8058 24.038 20.9375 24.356 20.9375 24.6875Z" fill="white"/>
</svg>
