<svg width="100" height="100" viewBox="0 0 100 100" fill="none" xmlns="http://www.w3.org/2000/svg">
<path d="M86.5137 52.1192C88.1543 49.9512 89.0625 47.295 89.0625 44.5313C89.0625 40.1466 86.6113 35.9962 82.666 33.6817C81.6503 33.086 80.4939 32.7724 79.3164 32.7735H55.8984L56.4844 20.7716C56.6211 17.8712 55.5957 15.1173 53.6035 13.0177C52.6258 11.9828 51.4463 11.1594 50.1378 10.5984C48.8294 10.0374 47.4198 9.75063 45.9961 9.75593C40.918 9.75593 36.4258 13.1739 35.0781 18.0665L26.6895 48.4376H26.6602V90.2344H72.7832C73.6816 90.2344 74.5605 90.0587 75.3711 89.7071C80.0195 87.7247 83.0176 83.1837 83.0176 78.1446C83.0176 76.9141 82.8418 75.7032 82.4902 74.5313C84.1309 72.3633 85.0391 69.7071 85.0391 66.9434C85.0391 65.713 84.8633 64.502 84.5117 63.3301C86.1523 61.1622 87.0605 58.5059 87.0605 55.7423C87.041 54.5118 86.8652 53.2911 86.5137 52.1192ZM10.9375 51.5626V87.1094C10.9375 88.838 12.334 90.2344 14.0625 90.2344H20.4102V48.4376H14.0625C12.334 48.4376 10.9375 49.8341 10.9375 51.5626Z" fill="#B8D9A0"/>
</svg>
