<svg width="28" height="28" viewBox="0 0 28 28" fill="none" xmlns="http://www.w3.org/2000/svg">
<path d="M10.9375 8.68706H12.9582V17.9374C12.9582 18.0578 13.0566 18.1562 13.177 18.1562H14.8176C14.9379 18.1562 15.0363 18.0578 15.0363 17.9374V8.68706H17.0625C17.2457 8.68706 17.3469 8.47651 17.2348 8.33432L14.1723 4.45698C14.1518 4.43083 14.1257 4.40969 14.0958 4.39515C14.066 4.3806 14.0332 4.37305 14 4.37305C13.9668 4.37305 13.934 4.3806 13.9042 4.39515C13.8743 4.40969 13.8482 4.43083 13.8277 4.45698L10.7652 8.33159C10.6531 8.47651 10.7543 8.68706 10.9375 8.68706V8.68706ZM24.0078 17.1171H22.3672C22.2469 17.1171 22.1484 17.2156 22.1484 17.3359V21.5468H5.85156V17.3359C5.85156 17.2156 5.75313 17.1171 5.63281 17.1171H3.99219C3.87187 17.1171 3.77344 17.2156 3.77344 17.3359V22.7499C3.77344 23.2339 4.16445 23.6249 4.64844 23.6249H23.3516C23.8355 23.6249 24.2266 23.2339 24.2266 22.7499V17.3359C24.2266 17.2156 24.1281 17.1171 24.0078 17.1171Z" fill="#2A2E2E"/>
</svg>
