<svg width="32" height="32" viewBox="0 0 32 32" fill="none" xmlns="http://www.w3.org/2000/svg">
<path d="M13.3333 24.0001C15.6999 23.9996 17.9984 23.2073 19.8626 21.7494L25.724 27.6107L27.6093 25.7254L21.748 19.8641C23.2066 17.9996 23.9994 15.7007 24 13.3334C24 7.45208 19.2146 2.66675 13.3333 2.66675C7.45196 2.66675 2.66663 7.45208 2.66663 13.3334C2.66663 19.2147 7.45196 24.0001 13.3333 24.0001ZM13.3333 5.33341C17.7453 5.33341 21.3333 8.92141 21.3333 13.3334C21.3333 17.7454 17.7453 21.3334 13.3333 21.3334C8.92129 21.3334 5.33329 17.7454 5.33329 13.3334C5.33329 8.92141 8.92129 5.33341 13.3333 5.33341Z" fill="#2A2E2E"/>
<path d="M15.216 11.4481C15.7213 11.9548 16 12.6241 16 13.3334H18.6666C18.6678 12.6327 18.5301 11.9386 18.2614 11.2914C17.9927 10.6442 17.5984 10.0567 17.1013 9.56278C15.0826 7.54678 11.5826 7.54678 9.56531 9.56278L11.448 11.4508C12.4613 10.4401 14.208 10.4428 15.216 11.4481Z" fill="#2A2E2E"/>
</svg>
