<svg width="250" height="350" viewBox="0 0 250 350" fill="none" xmlns="http://www.w3.org/2000/svg">
<rect x="0.5" y="0.5" width="249" height="349" fill="white" stroke="#B8D9A0"/>
<path d="M66.6667 217H183.333C187.754 217 191.993 215.244 195.118 212.118C198.244 208.993 200 204.754 200 200.333V83.6667C200 79.2464 198.244 75.0072 195.118 71.8816C191.993 68.7559 187.754 67 183.333 67H66.6667C62.2464 67 58.0072 68.7559 54.8816 71.8816C51.7559 75.0072 50 79.2464 50 83.6667V200.333C50 204.754 51.7559 208.993 54.8816 212.118C58.0072 215.244 62.2464 217 66.6667 217ZM91.6667 158.667L111.358 178.358L141.667 133.667L183.333 192H66.6667L91.6667 158.667Z" fill="#2A2E2E"/>
<path d="M48.024 290L51.608 267.44H60.856C63.3733 267.44 65.2933 268.005 66.616 269.136C67.96 270.267 68.632 271.813 68.632 273.776C68.632 275.867 68.0667 277.509 66.936 278.704C65.8267 279.877 64.3653 280.635 62.552 280.976C63.128 281.211 63.6187 281.584 64.024 282.096C64.4507 282.608 64.8027 283.227 65.08 283.952L67.384 290H62.296L59.704 283.152C59.448 282.469 59.1173 281.989 58.712 281.712C58.3067 281.413 57.7413 281.264 57.016 281.264H54.36L53.016 290H48.024ZM54.936 277.68H59.8C61.1013 277.68 62.104 277.392 62.808 276.816C63.512 276.219 63.864 275.344 63.864 274.192C63.864 273.232 63.5547 272.517 62.936 272.048C62.3387 271.557 61.3787 271.312 60.056 271.312H55.96L54.936 277.68ZM77.9958 290.352C76.3531 290.352 74.9238 290.053 73.7078 289.456C72.4918 288.837 71.5531 287.995 70.8918 286.928C70.2304 285.84 69.8997 284.571 69.8997 283.12C69.8997 281.328 70.2731 279.749 71.0198 278.384C71.7878 276.997 72.8331 275.92 74.1558 275.152C75.4998 274.363 77.0251 273.968 78.7318 273.968C80.4811 273.968 81.8784 274.352 82.9238 275.12C83.9691 275.867 84.6944 276.88 85.0998 278.16C85.5051 279.419 85.6118 280.816 85.4198 282.352L85.2917 283.184H74.3798C74.4011 284.315 74.7638 285.189 75.4678 285.808C76.1718 286.427 77.1744 286.736 78.4758 286.736C79.3718 286.736 80.2358 286.608 81.0678 286.352C81.9211 286.096 82.6784 285.723 83.3398 285.232L84.3958 288.4C83.6278 288.997 82.6784 289.477 81.5478 289.84C80.4171 290.181 79.2331 290.352 77.9958 290.352ZM78.6998 277.168C77.5478 277.168 76.6518 277.52 76.0118 278.224C75.3718 278.907 74.9451 279.728 74.7318 280.688H81.7078C81.7718 279.685 81.5584 278.853 81.0678 278.192C80.5984 277.509 79.8091 277.168 78.6998 277.168ZM92.4543 290.352C91.4729 290.352 90.5769 290.128 89.7663 289.68C88.9556 289.211 88.3156 288.603 87.8463 287.856C87.3769 287.109 87.1423 286.299 87.1423 285.424C87.1423 283.76 87.8463 282.555 89.2543 281.808C90.6836 281.04 92.9129 280.656 95.9423 280.656H98.1183L98.1823 280.24C98.3316 279.365 98.1716 278.693 97.7023 278.224C97.2543 277.755 96.4863 277.52 95.3983 277.52C93.5209 277.52 91.7076 278.043 89.9583 279.088L88.9663 275.824C89.7983 275.269 90.8543 274.821 92.1343 274.48C93.4356 274.139 94.7476 273.968 96.0703 273.968C97.8623 273.968 99.2703 274.299 100.294 274.96C101.318 275.621 102.012 276.517 102.374 277.648C102.737 278.757 102.801 280.005 102.566 281.392L101.222 290H96.7103L97.0623 287.696C96.5503 288.613 95.8889 289.285 95.0783 289.712C94.2676 290.139 93.3929 290.352 92.4543 290.352ZM94.0863 287.12C95.0036 287.12 95.7716 286.843 96.3903 286.288C97.0303 285.712 97.4249 284.944 97.5743 283.984L97.7343 283.152H96.0383C94.4809 283.152 93.3823 283.301 92.7423 283.6C92.1023 283.877 91.7823 284.379 91.7823 285.104C91.7823 285.744 91.9956 286.245 92.4223 286.608C92.8703 286.949 93.4249 287.12 94.0863 287.12ZM111.099 290.352C109.328 290.352 107.909 289.744 106.843 288.528C105.776 287.291 105.243 285.627 105.243 283.536C105.243 281.723 105.563 280.101 106.203 278.672C106.843 277.221 107.749 276.08 108.923 275.248C110.117 274.395 111.515 273.968 113.115 273.968C114.203 273.968 115.163 274.203 115.995 274.672C116.848 275.12 117.488 275.792 117.915 276.688L119.387 267.44H124.219L120.635 290H115.899L116.283 287.632C115.707 288.485 114.971 289.157 114.075 289.648C113.179 290.117 112.187 290.352 111.099 290.352ZM113.051 286.736C114.331 286.736 115.323 286.192 116.027 285.104C116.731 284.016 117.083 282.651 117.083 281.008C117.083 279.899 116.816 279.056 116.283 278.48C115.771 277.883 115.056 277.584 114.139 277.584C112.859 277.584 111.867 278.128 111.163 279.216C110.459 280.304 110.107 281.659 110.107 283.28C110.107 284.389 110.363 285.243 110.875 285.84C111.408 286.437 112.133 286.736 113.051 286.736ZM146.392 290L149.944 267.44H165.176L164.568 271.312H154.328L153.432 276.816H163L162.392 280.688H152.824L151.352 290H146.392ZM169.356 290.352C167.692 290.352 166.402 289.819 165.484 288.752C164.588 287.664 164.332 285.957 164.716 283.632L166.188 274.288H171.02L169.548 283.568C169.228 285.573 169.868 286.576 171.468 286.576C172.471 286.576 173.303 286.235 173.964 285.552C174.626 284.848 175.052 283.888 175.244 282.672L176.556 274.288H181.388L178.892 290H174.188L174.54 287.664C173.367 289.456 171.639 290.352 169.356 290.352ZM182.631 290L185.127 274.288H189.863L189.479 276.688C190.631 274.875 192.402 273.968 194.791 273.968C196.498 273.968 197.799 274.501 198.695 275.568C199.613 276.635 199.89 278.331 199.527 280.656L198.055 290H193.223L194.663 280.752C195.005 278.725 194.354 277.712 192.711 277.712C191.623 277.712 190.749 278.064 190.087 278.768C189.426 279.451 188.999 280.4 188.807 281.616L187.463 290H182.631Z" fill="#2A2E2E"/>
<path d="M135.162 290V285.752H124.866V281.108L136.206 264.62H141.534V280.748H144.846V285.752H141.534V290H135.162ZM135.162 280.748V273.944L130.59 280.748H135.162Z" fill="#B8D9A0"/>
</svg>
