<svg width="155" height="49" viewBox="0 0 155 49" fill="none" xmlns="http://www.w3.org/2000/svg">
<path d="M1.024 36L4.608 13.44H13.856C16.3733 13.44 18.2933 14.0053 19.616 15.136C20.96 16.2667 21.632 17.8133 21.632 19.776C21.632 21.8667 21.0667 23.5093 19.936 24.704C18.8267 25.8773 17.3653 26.6347 15.552 26.976C16.128 27.2107 16.6187 27.584 17.024 28.096C17.4507 28.608 17.8027 29.2267 18.08 29.952L20.384 36H15.296L12.704 29.152C12.448 28.4693 12.1173 27.9893 11.712 27.712C11.3067 27.4133 10.7413 27.264 10.016 27.264H7.36L6.016 36H1.024ZM7.936 23.68H12.8C14.1013 23.68 15.104 23.392 15.808 22.816C16.512 22.2187 16.864 21.344 16.864 20.192C16.864 19.232 16.5547 18.5173 15.936 18.048C15.3387 17.5573 14.3787 17.312 13.056 17.312H8.96L7.936 23.68ZM30.9958 36.352C29.3531 36.352 27.9238 36.0533 26.7078 35.456C25.4918 34.8373 24.5531 33.9947 23.8918 32.928C23.2304 31.84 22.8997 30.5707 22.8997 29.12C22.8997 27.328 23.2731 25.7493 24.0198 24.384C24.7878 22.9973 25.8331 21.92 27.1558 21.152C28.4998 20.3627 30.0251 19.968 31.7318 19.968C33.4811 19.968 34.8784 20.352 35.9238 21.12C36.9691 21.8667 37.6944 22.88 38.0998 24.16C38.5051 25.4187 38.6118 26.816 38.4198 28.352L38.2917 29.184H27.3798C27.4011 30.3147 27.7638 31.1893 28.4678 31.808C29.1718 32.4267 30.1744 32.736 31.4758 32.736C32.3718 32.736 33.2358 32.608 34.0678 32.352C34.9211 32.096 35.6784 31.7227 36.3398 31.232L37.3958 34.4C36.6278 34.9973 35.6784 35.4773 34.5478 35.84C33.4171 36.1813 32.2331 36.352 30.9958 36.352ZM31.6998 23.168C30.5478 23.168 29.6518 23.52 29.0118 24.224C28.3718 24.9067 27.9451 25.728 27.7318 26.688H34.7078C34.7718 25.6853 34.5584 24.8533 34.0678 24.192C33.5984 23.5093 32.8091 23.168 31.6998 23.168ZM45.4543 36.352C44.4729 36.352 43.5769 36.128 42.7663 35.68C41.9556 35.2107 41.3156 34.6027 40.8463 33.856C40.3769 33.1093 40.1423 32.2987 40.1423 31.424C40.1423 29.76 40.8463 28.5547 42.2543 27.808C43.6836 27.04 45.9129 26.656 48.9423 26.656H51.1183L51.1823 26.24C51.3316 25.3653 51.1716 24.6933 50.7023 24.224C50.2543 23.7547 49.4863 23.52 48.3983 23.52C46.5209 23.52 44.7076 24.0427 42.9583 25.088L41.9663 21.824C42.7983 21.2693 43.8543 20.8213 45.1343 20.48C46.4356 20.1387 47.7476 19.968 49.0703 19.968C50.8623 19.968 52.2703 20.2987 53.2943 20.96C54.3183 21.6213 55.0116 22.5173 55.3743 23.648C55.7369 24.7573 55.8009 26.0053 55.5662 27.392L54.2223 36H49.7103L50.0623 33.696C49.5503 34.6133 48.8889 35.2853 48.0783 35.712C47.2676 36.1387 46.3929 36.352 45.4543 36.352ZM47.0863 33.12C48.0036 33.12 48.7716 32.8427 49.3903 32.288C50.0303 31.712 50.4249 30.944 50.5743 29.984L50.7343 29.152H49.0383C47.4809 29.152 46.3823 29.3013 45.7423 29.6C45.1023 29.8773 44.7823 30.3787 44.7823 31.104C44.7823 31.744 44.9956 32.2453 45.4223 32.608C45.8703 32.9493 46.4249 33.12 47.0863 33.12ZM64.0988 36.352C62.3281 36.352 60.9094 35.744 59.8428 34.528C58.7761 33.2907 58.2428 31.6267 58.2428 29.536C58.2428 27.7227 58.5628 26.1013 59.2028 24.672C59.8428 23.2213 60.7494 22.08 61.9227 21.248C63.1174 20.3947 64.5148 19.968 66.1148 19.968C67.2028 19.968 68.1628 20.2027 68.9948 20.672C69.8481 21.12 70.4881 21.792 70.9148 22.688L72.3868 13.44H77.2188L73.6348 36H68.8988L69.2828 33.632C68.7068 34.4853 67.9708 35.1573 67.0748 35.648C66.1788 36.1173 65.1868 36.352 64.0988 36.352ZM66.0508 32.736C67.3308 32.736 68.3228 32.192 69.0268 31.104C69.7308 30.016 70.0828 28.6507 70.0828 27.008C70.0828 25.8987 69.8161 25.056 69.2828 24.48C68.7708 23.8827 68.0561 23.584 67.1388 23.584C65.8588 23.584 64.8668 24.128 64.1628 25.216C63.4588 26.304 63.1068 27.6587 63.1068 29.28C63.1068 30.3893 63.3628 31.2427 63.8748 31.84C64.4081 32.4373 65.1334 32.736 66.0508 32.736ZM99.3919 36L102.944 13.44H118.176L117.568 17.312H107.328L106.432 22.816H116L115.392 26.688H105.824L104.352 36H99.3919ZM122.356 36.352C120.692 36.352 119.402 35.8187 118.484 34.752C117.588 33.664 117.332 31.9573 117.716 29.632L119.188 20.288H124.02L122.548 29.568C122.228 31.5733 122.868 32.576 124.468 32.576C125.471 32.576 126.303 32.2347 126.964 31.552C127.626 30.848 128.052 29.888 128.244 28.672L129.556 20.288H134.388L131.892 36H127.188L127.54 33.664C126.367 35.456 124.639 36.352 122.356 36.352ZM135.631 36L138.127 20.288H142.863L142.479 22.688C143.631 20.8747 145.402 19.968 147.791 19.968C149.498 19.968 150.799 20.5013 151.695 21.568C152.613 22.6347 152.89 24.3307 152.527 26.656L151.055 36H146.223L147.663 26.752C148.005 24.7253 147.354 23.712 145.711 23.712C144.623 23.712 143.749 24.064 143.087 24.768C142.426 25.4507 141.999 26.4 141.807 27.616L140.463 36H135.631Z" fill="white"/>
<path d="M88.162 36V31.752H77.866V27.108L89.206 10.62H94.534V26.748H97.846V31.752H94.534V36H88.162ZM88.162 26.748V19.944L83.59 26.748H88.162Z" fill="#B8D9A0"/>
</svg>
