<svg width="119" height="44" viewBox="0 0 119 44" fill="none" xmlns="http://www.w3.org/2000/svg">
<path d="M0.768 33L3.456 16.08H10.392C12.28 16.08 13.72 16.504 14.712 17.352C15.72 18.2 16.224 19.36 16.224 20.832C16.224 22.4 15.8 23.632 14.952 24.528C14.12 25.408 13.024 25.976 11.664 26.232C12.096 26.408 12.464 26.688 12.768 27.072C13.088 27.456 13.352 27.92 13.56 28.464L15.288 33H11.472L9.528 27.864C9.336 27.352 9.088 26.992 8.784 26.784C8.48 26.56 8.056 26.448 7.512 26.448H5.52L4.512 33H0.768ZM5.952 23.76H9.6C10.576 23.76 11.328 23.544 11.856 23.112C12.384 22.664 12.648 22.008 12.648 21.144C12.648 20.424 12.416 19.888 11.952 19.536C11.504 19.168 10.784 18.984 9.792 18.984H6.72L5.952 23.76ZM23.2468 33.264C22.0148 33.264 20.9428 33.04 20.0308 32.592C19.1188 32.128 18.4148 31.496 17.9188 30.696C17.4228 29.88 17.1748 28.928 17.1748 27.84C17.1748 26.496 17.4548 25.312 18.0148 24.288C18.5908 23.248 19.3748 22.44 20.3668 21.864C21.3748 21.272 22.5188 20.976 23.7988 20.976C25.1108 20.976 26.1588 21.264 26.9428 21.84C27.7268 22.4 28.2708 23.16 28.5748 24.12C28.8788 25.064 28.9588 26.112 28.8148 27.264L28.7188 27.888H20.5348C20.5508 28.736 20.8228 29.392 21.3508 29.856C21.8788 30.32 22.6308 30.552 23.6068 30.552C24.2788 30.552 24.9268 30.456 25.5508 30.264C26.1908 30.072 26.7588 29.792 27.2548 29.424L28.0468 31.8C27.4708 32.248 26.7588 32.608 25.9108 32.88C25.0628 33.136 24.1748 33.264 23.2468 33.264ZM23.7748 23.376C22.9108 23.376 22.2388 23.64 21.7588 24.168C21.2788 24.68 20.9588 25.296 20.7988 26.016H26.0308C26.0788 25.264 25.9188 24.64 25.5508 24.144C25.1988 23.632 24.6068 23.376 23.7748 23.376ZM34.0907 33.264C33.3547 33.264 32.6827 33.096 32.0747 32.76C31.4667 32.408 30.9867 31.952 30.6347 31.392C30.2827 30.832 30.1067 30.224 30.1067 29.568C30.1067 28.32 30.6347 27.416 31.6907 26.856C32.7627 26.28 34.4347 25.992 36.7067 25.992H38.3387L38.3867 25.68C38.4987 25.024 38.3787 24.52 38.0267 24.168C37.6907 23.816 37.1147 23.64 36.2987 23.64C34.8907 23.64 33.5307 24.032 32.2187 24.816L31.4747 22.368C32.0987 21.952 32.8907 21.616 33.8507 21.36C34.8267 21.104 35.8107 20.976 36.8027 20.976C38.1467 20.976 39.2027 21.224 39.9707 21.72C40.7387 22.216 41.2587 22.888 41.5307 23.736C41.8027 24.568 41.8507 25.504 41.6747 26.544L40.6667 33H37.2827L37.5467 31.272C37.1627 31.96 36.6667 32.464 36.0587 32.784C35.4507 33.104 34.7947 33.264 34.0907 33.264ZM35.3147 30.84C36.0027 30.84 36.5787 30.632 37.0427 30.216C37.5227 29.784 37.8187 29.208 37.9307 28.488L38.0507 27.864H36.7787C35.6107 27.864 34.7867 27.976 34.3067 28.2C33.8267 28.408 33.5867 28.784 33.5867 29.328C33.5867 29.808 33.7467 30.184 34.0667 30.456C34.4027 30.712 34.8187 30.84 35.3147 30.84ZM48.0741 33.264C46.7461 33.264 45.6821 32.808 44.8821 31.896C44.0821 30.968 43.6821 29.72 43.6821 28.152C43.6821 26.792 43.9221 25.576 44.4021 24.504C44.8821 23.416 45.5621 22.56 46.4421 21.936C47.3381 21.296 48.3861 20.976 49.5861 20.976C50.4021 20.976 51.1221 21.152 51.7461 21.504C52.3861 21.84 52.8661 22.344 53.1861 23.016L54.2901 16.08H57.9141L55.2261 33H51.6741L51.9621 31.224C51.5301 31.864 50.9781 32.368 50.3061 32.736C49.6341 33.088 48.8901 33.264 48.0741 33.264ZM49.5381 30.552C50.4981 30.552 51.2421 30.144 51.7701 29.328C52.2981 28.512 52.5621 27.488 52.5621 26.256C52.5621 25.424 52.3621 24.792 51.9621 24.36C51.5781 23.912 51.0421 23.688 50.3541 23.688C49.3941 23.688 48.6501 24.096 48.1221 24.912C47.5941 25.728 47.3301 26.744 47.3301 27.96C47.3301 28.792 47.5221 29.432 47.9061 29.88C48.3061 30.328 48.8501 30.552 49.5381 30.552ZM77.542 33L80.206 16.08H91.63L91.174 18.984H83.494L82.822 23.112H89.998L89.542 26.016H82.366L81.262 33H77.542ZM94.7654 33.264C93.5174 33.264 92.5494 32.864 91.8614 32.064C91.1894 31.248 90.9974 29.968 91.2854 28.224L92.3894 21.216H96.0134L94.9094 28.176C94.6694 29.68 95.1494 30.432 96.3494 30.432C97.1014 30.432 97.7254 30.176 98.2214 29.664C98.7174 29.136 99.0374 28.416 99.1814 27.504L100.165 21.216H103.789L101.917 33H98.3894L98.6534 31.248C97.7734 32.592 96.4774 33.264 94.7654 33.264ZM104.722 33L106.594 21.216H110.146L109.858 23.016C110.722 21.656 112.05 20.976 113.842 20.976C115.122 20.976 116.098 21.376 116.77 22.176C117.458 22.976 117.666 24.248 117.394 25.992L116.29 33H112.666L113.746 26.064C114.002 24.544 113.514 23.784 112.282 23.784C111.466 23.784 110.81 24.048 110.314 24.576C109.818 25.088 109.498 25.8 109.354 26.712L108.346 33H104.722Z" fill="#2A2E2E"/>
<path d="M67.7065 33V29.224H58.5545V25.096L68.6345 10.44H73.3705V24.776H76.3145V29.224H73.3705V33H67.7065ZM67.7065 24.776V18.728L63.6425 24.776H67.7065Z" fill="#B8D9A0"/>
</svg>
