<svg width="93" height="25" viewBox="0 0 93 25" fill="none" xmlns="http://www.w3.org/2000/svg">
<path d="M31.476 18V5.31H36.768C38.088 5.31 39.108 5.604 39.828 6.192C40.56 6.768 40.926 7.578 40.926 8.622C40.926 9.306 40.746 9.894 40.386 10.386C40.026 10.878 39.534 11.238 38.91 11.466C39.642 11.658 40.212 12.012 40.62 12.528C41.028 13.044 41.232 13.698 41.232 14.49C41.232 15.618 40.854 16.488 40.098 17.1C39.354 17.7 38.316 18 36.984 18H31.476ZM33.276 10.854H36.48C38.232 10.854 39.108 10.17 39.108 8.802C39.108 7.434 38.232 6.75 36.48 6.75H33.276V10.854ZM33.276 16.56H36.768C38.532 16.56 39.414 15.846 39.414 14.418C39.414 13.002 38.532 12.294 36.768 12.294H33.276V16.56ZM43.5475 18V9.216H45.3115V10.782C45.7675 9.738 46.7155 9.156 48.1555 9.036L48.7495 9L48.8755 10.548L47.7775 10.656C46.1815 10.812 45.3835 11.634 45.3835 13.122V18H43.5475ZM53.9553 18.162C53.0673 18.162 52.2993 17.976 51.6513 17.604C51.0033 17.232 50.4993 16.71 50.1393 16.038C49.7913 15.354 49.6173 14.544 49.6173 13.608C49.6173 12.672 49.7913 11.868 50.1393 11.196C50.4993 10.512 51.0033 9.984 51.6513 9.612C52.2993 9.24 53.0673 9.054 53.9553 9.054C54.8193 9.054 55.5753 9.24 56.2233 9.612C56.8713 9.984 57.3753 10.512 57.7353 11.196C58.0953 11.868 58.2753 12.672 58.2753 13.608C58.2753 14.544 58.0953 15.354 57.7353 16.038C57.3753 16.71 56.8713 17.232 56.2233 17.604C55.5753 17.976 54.8193 18.162 53.9553 18.162ZM53.9553 16.758C54.6993 16.758 55.2993 16.488 55.7553 15.948C56.2113 15.408 56.4393 14.628 56.4393 13.608C56.4393 12.588 56.2113 11.814 55.7553 11.286C55.2993 10.746 54.6993 10.476 53.9553 10.476C53.1993 10.476 52.5933 10.746 52.1373 11.286C51.6813 11.814 51.4533 12.588 51.4533 13.608C51.4533 14.628 51.6813 15.408 52.1373 15.948C52.5933 16.488 53.1993 16.758 53.9553 16.758ZM62.5349 18L59.1869 9.216H61.0589L63.4169 15.876L65.8469 9.216H67.2509L69.6449 15.912L72.0389 9.216H73.8209L70.4729 18H68.8169L66.4949 11.718L64.1909 18H62.5349ZM78.2837 18.162C77.5637 18.162 76.8917 18.072 76.2677 17.892C75.6437 17.7 75.1217 17.436 74.7017 17.1L75.2237 15.876C75.6677 16.188 76.1537 16.428 76.6817 16.596C77.2217 16.764 77.7617 16.848 78.3017 16.848C78.9377 16.848 79.4177 16.734 79.7417 16.506C80.0657 16.278 80.2277 15.972 80.2277 15.588C80.2277 15.276 80.1197 15.036 79.9037 14.868C79.6877 14.688 79.3637 14.55 78.9317 14.454L77.2217 14.112C75.7097 13.8 74.9537 13.02 74.9537 11.772C74.9537 10.944 75.2837 10.284 75.9437 9.792C76.6037 9.3 77.4677 9.054 78.5357 9.054C79.1477 9.054 79.7297 9.144 80.2817 9.324C80.8457 9.504 81.3137 9.774 81.6857 10.134L81.1637 11.358C80.8037 11.046 80.3897 10.806 79.9217 10.638C79.4537 10.47 78.9917 10.386 78.5357 10.386C77.9117 10.386 77.4377 10.506 77.1137 10.746C76.7897 10.974 76.6277 11.286 76.6277 11.682C76.6277 12.282 77.0237 12.666 77.8157 12.834L79.5257 13.176C80.3057 13.332 80.8937 13.596 81.2897 13.968C81.6977 14.34 81.9017 14.844 81.9017 15.48C81.9017 16.32 81.5717 16.98 80.9117 17.46C80.2517 17.928 79.3757 18.162 78.2837 18.162ZM88.0465 18.162C86.6065 18.162 85.4725 17.76 84.6445 16.956C83.8165 16.14 83.4025 15.03 83.4025 13.626C83.4025 12.726 83.5825 11.934 83.9425 11.25C84.3145 10.554 84.8245 10.014 85.4725 9.63C86.1205 9.246 86.8645 9.054 87.7045 9.054C88.9165 9.054 89.8705 9.444 90.5665 10.224C91.2625 10.992 91.6105 12.054 91.6105 13.41V14.022H85.1665C85.2985 15.846 86.2645 16.758 88.0645 16.758C88.5685 16.758 89.0605 16.68 89.5405 16.524C90.0325 16.368 90.4945 16.11 90.9265 15.75L91.4665 17.01C91.0705 17.37 90.5605 17.652 89.9365 17.856C89.3125 18.06 88.6825 18.162 88.0465 18.162ZM87.7765 10.332C87.0205 10.332 86.4205 10.566 85.9765 11.034C85.5325 11.502 85.2625 12.126 85.1665 12.906H90.0805C90.0445 12.09 89.8285 11.46 89.4325 11.016C89.0365 10.56 88.4845 10.332 87.7765 10.332Z" fill="#2A2E2E"/>
<path d="M12 10.9C11.39 10.9 10.9 11.39 10.9 12C10.9 12.61 11.39 13.1 12 13.1C12.61 13.1 13.1 12.61 13.1 12C13.1 11.39 12.61 10.9 12 10.9ZM12 2C6.48 2 2 6.48 2 12C2 17.52 6.48 22 12 22C17.52 22 22 17.52 22 12C22 6.48 17.52 2 12 2ZM14.19 14.19L6 18L9.81 9.81L18 6L14.19 14.19Z" fill="#2A2E2E"/>
</svg>
