<svg width="97" height="25" viewBox="0 0 97 25" fill="none" xmlns="http://www.w3.org/2000/svg">
<path d="M33.606 18.162C31.914 18.162 30.618 17.718 29.718 16.83C28.83 15.93 28.386 14.616 28.386 12.888V5.31H30.258V12.852C30.258 15.312 31.374 16.542 33.606 16.542C35.838 16.542 36.954 15.312 36.954 12.852V5.31H38.79V12.888C38.79 14.616 38.352 15.93 37.476 16.83C36.6 17.718 35.31 18.162 33.606 18.162ZM41.4792 21.24V9.216H43.2612V10.71C43.5132 10.206 43.8972 9.804 44.4132 9.504C44.9292 9.204 45.5232 9.054 46.1952 9.054C46.9752 9.054 47.6532 9.24 48.2292 9.612C48.8172 9.984 49.2672 10.512 49.5792 11.196C49.9032 11.868 50.0652 12.672 50.0652 13.608C50.0652 14.544 49.9032 15.354 49.5792 16.038C49.2672 16.722 48.8172 17.25 48.2292 17.622C47.6532 17.982 46.9752 18.162 46.1952 18.162C45.5472 18.162 44.9652 18.024 44.4492 17.748C43.9452 17.46 43.5612 17.07 43.2972 16.578V21.24H41.4792ZM45.7452 16.758C46.5012 16.758 47.1012 16.488 47.5452 15.948C48.0012 15.408 48.2292 14.628 48.2292 13.608C48.2292 12.588 48.0012 11.814 47.5452 11.286C47.1012 10.746 46.5012 10.476 45.7452 10.476C44.9892 10.476 44.3832 10.746 43.9272 11.286C43.4832 11.814 43.2612 12.588 43.2612 13.608C43.2612 14.628 43.4832 15.408 43.9272 15.948C44.3832 16.488 44.9892 16.758 45.7452 16.758ZM55.4619 18.162C54.6939 18.162 54.0159 17.982 53.4279 17.622C52.8519 17.25 52.4019 16.722 52.0779 16.038C51.7539 15.354 51.5919 14.544 51.5919 13.608C51.5919 12.672 51.7539 11.868 52.0779 11.196C52.4019 10.512 52.8519 9.984 53.4279 9.612C54.0039 9.24 54.6819 9.054 55.4619 9.054C56.1219 9.054 56.7099 9.198 57.2259 9.486C57.7419 9.774 58.1259 10.164 58.3779 10.656V5.31H60.1959V18H58.4139V16.47C58.1619 16.998 57.7719 17.412 57.2439 17.712C56.7279 18.012 56.1339 18.162 55.4619 18.162ZM55.9299 16.758C56.6739 16.758 57.2739 16.488 57.7299 15.948C58.1859 15.408 58.4139 14.628 58.4139 13.608C58.4139 12.588 58.1859 11.814 57.7299 11.286C57.2739 10.746 56.6739 10.476 55.9299 10.476C55.1739 10.476 54.5679 10.746 54.1119 11.286C53.6559 11.814 53.4279 12.588 53.4279 13.608C53.4279 14.628 53.6559 15.408 54.1119 15.948C54.5679 16.488 55.1739 16.758 55.9299 16.758ZM65.5567 18.162C64.9447 18.162 64.3987 18.042 63.9187 17.802C63.4387 17.562 63.0547 17.238 62.7667 16.83C62.4907 16.422 62.3527 15.96 62.3527 15.444C62.3527 14.796 62.5147 14.286 62.8387 13.914C63.1747 13.542 63.7207 13.272 64.4767 13.104C65.2447 12.936 66.2767 12.852 67.5727 12.852H68.1847V12.384C68.1847 11.7 68.0407 11.208 67.7527 10.908C67.4647 10.608 66.9907 10.458 66.3307 10.458C65.8267 10.458 65.3227 10.536 64.8187 10.692C64.3147 10.836 63.7987 11.07 63.2707 11.394L62.7127 10.116C63.1687 9.792 63.7387 9.534 64.4227 9.342C65.1067 9.15 65.7607 9.054 66.3847 9.054C67.5847 9.054 68.4727 9.342 69.0487 9.918C69.6247 10.482 69.9127 11.37 69.9127 12.582V18H68.2027V16.542C67.9867 17.046 67.6507 17.442 67.1947 17.73C66.7387 18.018 66.1927 18.162 65.5567 18.162ZM65.9167 16.866C66.5647 16.866 67.1047 16.638 67.5367 16.182C67.9687 15.726 68.1847 15.15 68.1847 14.454V13.968H67.5907C66.7147 13.968 66.0247 14.01 65.5207 14.094C65.0287 14.178 64.6747 14.322 64.4587 14.526C64.2547 14.718 64.1527 14.988 64.1527 15.336C64.1527 15.792 64.3087 16.164 64.6207 16.452C64.9327 16.728 65.3647 16.866 65.9167 16.866ZM76.1607 18.162C75.0567 18.162 74.2347 17.88 73.6947 17.316C73.1547 16.752 72.8847 15.936 72.8847 14.868V10.62H71.1747V9.216H72.8847V6.57H74.7027V9.216H77.4207V10.62H74.7027V14.724C74.7027 15.36 74.8347 15.84 75.0987 16.164C75.3747 16.488 75.8187 16.65 76.4307 16.65C76.6227 16.65 76.8087 16.632 76.9887 16.596C77.1687 16.548 77.3487 16.494 77.5287 16.434L77.8167 17.802C77.6367 17.91 77.3847 17.994 77.0607 18.054C76.7487 18.126 76.4487 18.162 76.1607 18.162ZM83.025 18.162C81.585 18.162 80.451 17.76 79.623 16.956C78.795 16.14 78.381 15.03 78.381 13.626C78.381 12.726 78.561 11.934 78.921 11.25C79.293 10.554 79.803 10.014 80.451 9.63C81.099 9.246 81.843 9.054 82.683 9.054C83.895 9.054 84.849 9.444 85.545 10.224C86.241 10.992 86.589 12.054 86.589 13.41V14.022H80.145C80.277 15.846 81.243 16.758 83.043 16.758C83.547 16.758 84.039 16.68 84.519 16.524C85.011 16.368 85.473 16.11 85.905 15.75L86.445 17.01C86.049 17.37 85.539 17.652 84.915 17.856C84.291 18.06 83.661 18.162 83.025 18.162ZM82.755 10.332C81.999 10.332 81.399 10.566 80.955 11.034C80.511 11.502 80.241 12.126 80.145 12.906H85.059C85.023 12.09 84.807 11.46 84.411 11.016C84.015 10.56 83.463 10.332 82.755 10.332ZM91.649 18.162C90.929 18.162 90.257 18.072 89.633 17.892C89.009 17.7 88.487 17.436 88.067 17.1L88.589 15.876C89.033 16.188 89.519 16.428 90.047 16.596C90.587 16.764 91.127 16.848 91.667 16.848C92.303 16.848 92.783 16.734 93.107 16.506C93.431 16.278 93.593 15.972 93.593 15.588C93.593 15.276 93.485 15.036 93.269 14.868C93.053 14.688 92.729 14.55 92.297 14.454L90.587 14.112C89.075 13.8 88.319 13.02 88.319 11.772C88.319 10.944 88.649 10.284 89.309 9.792C89.969 9.3 90.833 9.054 91.901 9.054C92.513 9.054 93.095 9.144 93.647 9.324C94.211 9.504 94.679 9.774 95.051 10.134L94.529 11.358C94.169 11.046 93.755 10.806 93.287 10.638C92.819 10.47 92.357 10.386 91.901 10.386C91.277 10.386 90.803 10.506 90.479 10.746C90.155 10.974 89.993 11.286 89.993 11.682C89.993 12.282 90.389 12.666 91.181 12.834L92.891 13.176C93.671 13.332 94.259 13.596 94.655 13.968C95.063 14.34 95.267 14.844 95.267 15.48C95.267 16.32 94.937 16.98 94.277 17.46C93.617 17.928 92.741 18.162 91.649 18.162Z" fill="#2A2E2E"/>
<path d="M18.8274 3.00218C16.9246 3.12714 13.1426 3.58196 10.8078 5.2357C10.6467 5.3498 10.5554 5.55271 10.5554 5.76485V20.3846C10.5554 20.8486 10.9939 21.1419 11.3637 20.9266C13.7659 19.5275 17.2399 19.1459 18.9576 19.0414C19.5441 19.0056 20 18.4616 20 17.8095V4.23566C20.0003 3.5241 19.467 2.9604 18.8274 3.00218ZM9.19217 5.2357C6.85776 3.58196 3.07575 3.12754 1.17294 3.00218C0.533343 2.9604 0 3.5241 0 4.23566V17.8099C0 18.4624 0.455911 19.0064 1.04238 19.0418C2.76081 19.1463 6.23657 19.5284 8.63869 20.9282C9.00745 21.1431 9.44461 20.8502 9.44461 20.3874V5.75761C9.44461 5.54507 9.35364 5.35021 9.19217 5.2357Z" fill="#2A2E2E"/>
</svg>
