<svg width="58" height="58" viewBox="0 0 58 58" fill="none" xmlns="http://www.w3.org/2000/svg">
<path d="M2.704 22L5.168 6.49H11.526C13.2567 6.49 14.5767 6.87867 15.486 7.656C16.41 8.43333 16.872 9.49667 16.872 10.846C16.872 12.2833 16.4833 13.4127 15.706 14.234C14.9433 15.0407 13.9387 15.5613 12.692 15.796C13.088 15.9573 13.4253 16.214 13.704 16.566C13.9973 16.918 14.2393 17.3433 14.43 17.842L16.014 22H12.516L10.734 17.292C10.558 16.8227 10.3307 16.4927 10.052 16.302C9.77333 16.0967 9.38467 15.994 8.886 15.994H7.06L6.136 22H2.704ZM7.456 13.53H10.8C11.6947 13.53 12.384 13.332 12.868 12.936C13.352 12.5253 13.594 11.924 13.594 11.132C13.594 10.472 13.3813 9.98067 12.956 9.658C12.5453 9.32067 11.8853 9.152 10.976 9.152H8.16L7.456 13.53ZM23.3096 22.242C22.1802 22.242 21.1976 22.0367 20.3616 21.626C19.5256 21.2007 18.8802 20.6213 18.4256 19.888C17.9709 19.14 17.7436 18.2673 17.7436 17.27C17.7436 16.038 18.0002 14.9527 18.5136 14.014C19.0416 13.0607 19.7602 12.32 20.6696 11.792C21.5936 11.2493 22.6422 10.978 23.8156 10.978C25.0182 10.978 25.9789 11.242 26.6976 11.77C27.4162 12.2833 27.9149 12.98 28.1936 13.86C28.4722 14.7253 28.5456 15.686 28.4136 16.742L28.3256 17.314H20.8236C20.8382 18.0913 21.0876 18.6927 21.5716 19.118C22.0556 19.5433 22.7449 19.756 23.6396 19.756C24.2556 19.756 24.8496 19.668 25.4216 19.492C26.0082 19.316 26.5289 19.0593 26.9836 18.722L27.7096 20.9C27.1816 21.3107 26.5289 21.6407 25.7516 21.89C24.9742 22.1247 24.1602 22.242 23.3096 22.242ZM23.7936 13.178C23.0016 13.178 22.3856 13.42 21.9456 13.904C21.5056 14.3733 21.2122 14.938 21.0656 15.598H25.8616C25.9056 14.9087 25.7589 14.3367 25.4216 13.882C25.0989 13.4127 24.5562 13.178 23.7936 13.178ZM33.2498 22.242C32.5751 22.242 31.9591 22.088 31.4018 21.78C30.8445 21.4573 30.4045 21.0393 30.0818 20.526C29.7591 20.0127 29.5978 19.4553 29.5978 18.854C29.5978 17.71 30.0818 16.8813 31.0498 16.368C32.0325 15.84 33.5651 15.576 35.6478 15.576H37.1438L37.1878 15.29C37.2905 14.6887 37.1805 14.2267 36.8578 13.904C36.5498 13.5813 36.0218 13.42 35.2738 13.42C33.9831 13.42 32.7365 13.7793 31.5338 14.498L30.8518 12.254C31.4238 11.8727 32.1498 11.5647 33.0298 11.33C33.9245 11.0953 34.8265 10.978 35.7358 10.978C36.9678 10.978 37.9358 11.2053 38.6398 11.66C39.3438 12.1147 39.8205 12.7307 40.0698 13.508C40.3191 14.2707 40.3631 15.1287 40.2018 16.082L39.2778 22H36.1758L36.4178 20.416C36.0658 21.0467 35.6111 21.5087 35.0538 21.802C34.4965 22.0953 33.8951 22.242 33.2498 22.242ZM34.3718 20.02C35.0025 20.02 35.5305 19.8293 35.9558 19.448C36.3958 19.052 36.6671 18.524 36.7698 17.864L36.8798 17.292H35.7138C34.6431 17.292 33.8878 17.3947 33.4478 17.6C33.0078 17.7907 32.7878 18.1353 32.7878 18.634C32.7878 19.074 32.9345 19.4187 33.2278 19.668C33.5358 19.9027 33.9171 20.02 34.3718 20.02ZM46.0679 22.242C44.8506 22.242 43.8752 21.824 43.1419 20.988C42.4086 20.1373 42.0419 18.9933 42.0419 17.556C42.0419 16.3093 42.2619 15.1947 42.7019 14.212C43.1419 13.2147 43.7652 12.43 44.5719 11.858C45.3932 11.2713 46.3539 10.978 47.4539 10.978C48.2019 10.978 48.8619 11.1393 49.4339 11.462C50.0206 11.77 50.4606 12.232 50.7539 12.848L51.7659 6.49H55.0879L52.6239 22H49.3679L49.6319 20.372C49.2359 20.9587 48.7299 21.4207 48.1139 21.758C47.4979 22.0807 46.8159 22.242 46.0679 22.242ZM47.4099 19.756C48.2899 19.756 48.9719 19.382 49.4559 18.634C49.9399 17.886 50.1819 16.9473 50.1819 15.818C50.1819 15.0553 49.9986 14.476 49.6319 14.08C49.2799 13.6693 48.7886 13.464 48.1579 13.464C47.2779 13.464 46.5959 13.838 46.1119 14.586C45.6279 15.334 45.3859 16.2653 45.3859 17.38C45.3859 18.1427 45.5619 18.7293 45.9139 19.14C46.2806 19.5507 46.7792 19.756 47.4099 19.756Z" fill="#F2F6FE"/>
<path d="M9.51 47V43.46H0.93V39.59L10.38 25.85H14.82V39.29H17.58V43.46H14.82V47H9.51ZM9.51 39.29V33.62L5.7 39.29H9.51Z" fill="#B8D9A0"/>
<path d="M19.726 47L22.168 31.49H32.64L32.222 34.152H25.182L24.566 37.936H31.144L30.726 40.598H24.148L23.136 47H19.726ZM35.5141 47.242C34.3701 47.242 33.4828 46.8753 32.8521 46.142C32.2361 45.394 32.0601 44.2207 32.3241 42.622L33.3361 36.198H36.6581L35.6461 42.578C35.4261 43.9567 35.8661 44.646 36.9661 44.646C37.6554 44.646 38.2274 44.4113 38.6821 43.942C39.1368 43.458 39.4301 42.798 39.5621 41.962L40.4641 36.198H43.7861L42.0701 47H38.8361L39.0781 45.394C38.2714 46.626 37.0834 47.242 35.5141 47.242ZM44.6407 47L46.3567 36.198H49.6127L49.3487 37.848C50.1407 36.6013 51.358 35.978 53.0007 35.978C54.174 35.978 55.0687 36.3447 55.6847 37.078C56.3153 37.8113 56.506 38.9773 56.2567 40.576L55.2447 47H51.9227L52.9127 40.642C53.1473 39.2487 52.7 38.552 51.5707 38.552C50.8227 38.552 50.2213 38.794 49.7667 39.278C49.312 39.7473 49.0187 40.4 48.8867 41.236L47.9627 47H44.6407Z" fill="#F2F6FE"/>
</svg>
